<?xml version="1.0"?>
<svg xmlns="http://www.w3.org/2000/svg" viewBox="0 0 64 64"><g id="_08-Concept" data-name="08-Concept"><path d="M29,26.6509V29a1.9986,1.9986,0,0,0,1.1731,1.8159l.6672,2.6695A1.9971,1.9971,0,0,0,32.7808,35h2.4384A1.9971,1.9971,0,0,0,37.16,33.4854l.6672-2.6695A1.9986,1.9986,0,0,0,39,29V26.6509a10,10,0,1,0-10,0ZM37,27v2H31V27Zm-4.2192,6-.5-2h3.4384l-.5,2ZM34,10a7.983,7.983,0,0,1,3.8237,15H35V21.4141l2.707-2.7071a1,1,0,0,0-1.414-1.414L34,19.5859,31.707,17.293a1,1,0,0,0-1.414,1.414L33,21.4141V25H30.1763A7.983,7.983,0,0,1,34,10ZM19,19a1,1,0,0,1,0-2h2a1,1,0,0,1,0,2Zm30-2a1,1,0,0,1,0,2H47a1,1,0,0,1,0-2ZM22.6863,8.1005a1,1,0,1,1,1.4142-1.4142l1.4142,1.4142a1,1,0,1,1-1.4142,1.4142ZM43.9,26.4853,45.3137,27.9A1,1,0,1,1,43.9,29.3137L42.4853,27.9A1,1,0,0,1,43.9,26.4853ZM42.4853,9.5147a1,1,0,0,1,0-1.4142L43.9,6.6863a1,1,0,1,1,1.4142,1.4142L43.9,9.5147A1,1,0,0,1,42.4853,9.5147Zm-19.799,19.799a1,1,0,0,1,0-1.4142l1.4142-1.4142A1,1,0,0,1,25.5147,27.9l-1.4142,1.4142A1,1,0,0,1,22.6863,29.3137ZM33,5V3a1,1,0,0,1,2,0V5a1,1,0,0,1-2,0Zm12.9971,7H51a5.0059,5.0059,0,0,1,5,5V28a1,1,0,0,1-2,0V17a3.0033,3.0033,0,0,0-3-3H45.9971a1,1,0,0,1,0-2ZM30,51H8a4.0065,4.0065,0,1,1,4-4,1,1,0,0,0,2,0V14h8.0029a1,1,0,0,0,0-2H13.9111A5.9973,5.9973,0,0,0,2,13V47a6.0066,6.0066,0,0,0,6,6H30a1,1,0,0,0,0-2ZM4,13a4,4,0,1,1,8,0V42.521a6.0044,6.0044,0,0,0-8,.0107ZM60.4644,32.5356a5.2488,5.2488,0,0,0-7.4141,0L33.293,52.293a.9957.9957,0,0,0-.2632.4643l-2,8A1,1,0,0,0,32.2427,61.97l8-2a.9957.9957,0,0,0,.4643-.2632L60.4644,39.95A5.2488,5.2488,0,0,0,60.4644,32.5356ZM38.4141,56,55,39.4141,56.5859,41,40,57.5859ZM37,54.5859,35.4141,53,52,36.4141,53.5859,38Zm-2.4583.37,3.5025,3.5025-4.67,1.1672ZM59.05,38.5356,58,39.5859,53.4141,35l1.05-1.05A3.2427,3.2427,0,1,1,59.05,38.5356ZM18,39H40a1,1,0,0,1,0,2H18a1,1,0,0,1,0-2Zm13,8H18a1,1,0,0,1,0-2H31a1,1,0,0,1,0,2Z"/></g></svg>
