<svg id="Layer_1" enable-background="new 0 0 512 512" height="512" viewBox="0 0 512 512" width="512" xmlns="http://www.w3.org/2000/svg"><path d="m343.9 176.8c3.6 10.4 5.4 21.3 5.4 32.4 0 4.4-3.5 7.9-7.9 7.9s-7.9-3.5-7.9-7.9c0-9.3-1.5-18.5-4.5-27.2-8.3-24.1-26.9-42.9-51-51.5-4.1-1.5-6.3-6-4.8-10.1s6-6.3 10.1-4.8c28.6 10.2 50.7 32.5 60.6 61.2zm35.9 39.8c-1.9 35.2-17.7 67.5-44.5 90.8-20.7 18-32.9 43.8-34.2 71.5 25.8-1.5 39.7 31 21 48.4 18.2 16.8 5.6 48.7-19.5 48.4h-8.4c.8 19.1-14.5 35.3-33.7 35.3h-59.7c-19.2.1-34.5-16.2-33.7-35.3h-8.4c-25.1.3-37.7-31.6-19.5-48.4-16-14.3-8.3-42.8 12.5-47.4-4.1-4.4-7.4-9.6-9.6-15.4-37.7 2.8-66.3-36-53.9-71.1-47.5-21.5-47.5-91.2 0-112.7-12.4-35 16.2-73.8 53.9-71.1 18-47.7 88.5-35.5 89.1 15.8v223.3c0 11.6-4.3 22.1-11.4 30.2h22.2v-281.5c-.2-10.1 9.2-18.9 19.3-17.8 68.5 4.9 123.5 68.4 118.5 137zm-209.9 107.2c1.6 4.1-.5 8.6-4.6 10.2-2.1.8-3.9 1.9-5.3 3.4-6 6-4.4 15.9-4.2 17.1 7.5 35.6 59.1 30.7 59.8-5.7v-223.3c-.2-32.3-44.3-41.6-57.5-12.4 10.6 2.1 42 28.9 19.5 33.9-7.6-.2-9.1-10.2-15.2-13.6-29.6-23.5-71.8 8.7-58.9 42.9 14.9-2.2 30.4 3.9 40 15.4 2.8 3.3 2.4 8.3-1 11.1-3.3 2.8-8.3 2.4-11.1-1-2.1-2.5-6.7-7-14-9.1-7.1-2.1-13.3-.8-16.3.1-40.8 12-44.1 70-5.3 86.7 5.3-8.5 36.5-32.3 42-15.7 1.1 4.2-1.5 8.5-5.7 9.6-44.9 11.1-38.7 74.2 7.6 75.4.2-6.6 2-15.5 9.1-22.6 5.1-5.3 16.9-12.2 21.1-2.4zm108.6 151.9h-95.5c-.8 10.4 7.4 19.5 17.9 19.5h59.7c10.5.1 18.6-9.1 17.9-19.5zm36.5-28.1c0-6.8-5.5-12.4-12.4-12.4h-143.7c-6.8 0-12.4 5.5-12.4 12.4 0 6.8 5.5 12.4 12.4 12.4h143.8c6.7-.1 12.3-5.6 12.3-12.4zm-156.1-52.9c-16.3.4-16.3 24.3 0 24.7h143.8c6.8 0 12.4-5.5 12.4-12.4 0-6.8-5.5-12.4-12.4-12.4h-143.8zm101-299.4c-1.4.1-2 .6-2.2 2.1v281.5h27.4c1.4-32.3 15.7-62.5 39.8-83.4 76.1-65.1 34.3-192.1-65-200.2zm101.6 14.6s36.5-36.5 36.5-36.5c7.2-7.4-3.7-18.4-11.2-11.2l-36.5 36.5c-7.2 7.5 3.8 18.4 11.2 11.2zm90 92.6h-51.6c-10.4.2-10.4 15.6 0 15.8h51.6c10.4-.2 10.4-15.6 0-15.8zm-90 108.3c-7.4-7.2-18.4 3.7-11.2 11.2l36.5 36.5c7.5 7.2 18.4-3.7 11.2-11.2 0 0-36.5-36.5-36.5-36.5zm-103.7-250.4v-51.6c-.2-10.4-15.6-10.4-15.8 0v51.6c.2 10.4 15.6 10.4 15.8 0z"/></svg>