<svg clip-rule="evenodd" fill-rule="evenodd" height="512" image-rendering="optimizeQuality" shape-rendering="geometricPrecision" text-rendering="geometricPrecision" viewBox="0 0 512 512" width="512" xmlns="http://www.w3.org/2000/svg"><g id="Layer_x0020_1"><g id="_403447848"><g id="_403447656"><path d="m256 310c-33 0-63-13-86-38-22-22-36-54-41-88l-25-176c-1-2 0-4 1-6 2-1 4-2 6-2h290c2 0 4 1 6 2 1 2 2 4 1 6l-25 176c-5 34-19 66-41 88-23 25-53 38-86 38zm-137-296 24 168c8 57 46 114 113 114 67 0 105-57 113-114l24-168z"/></g><g id="_403447608"><path d="m341 270h-170c-4 0-7-3-7-7s3-7 7-7h170c4 0 7 3 7 7s-3 7-7 7z"/></g><g id="_403446792"><path d="m396 50h-280c-4 0-7-3-7-7s3-7 7-7h280c4 0 7 3 7 7s-3 7-7 7z"/></g><g id="_403447464"><path d="m284 400c-4 0-7-3-7-7v-94c0-3 3-7 7-7s7 4 7 7v94c0 4-3 7-7 7zm-56 0c-4 0-7-3-7-7v-94c0-3 3-7 7-7s7 4 7 7v94c0 4-3 7-7 7z"/></g><g id="_403447704"><path d="m350 439c-4 0-7-4-7-7v-32h-174v32c0 3-3 7-7 7s-7-4-7-7v-39c0-4 3-7 7-7h188c4 0 7 3 7 7v39c0 3-3 7-7 7z"/></g><g id="_178798392"><path d="m409 512h-306c-4 0-7-3-7-7v-73c0-4 3-7 7-7h306c4 0 7 3 7 7v73c0 4-3 7-7 7zm-299-14h292v-59h-292z"/></g><g id="_178797720"><path d="m397 237h-35c-4 0-7-3-7-7 0-3 3-7 7-7h35c24 0 43-19 43-43v-93h-49c-4 0-7-4-7-7 0-4 3-7 7-7h56c4 0 7 3 7 7v100c0 32-25 57-57 57z"/></g><g id="_178906864"><path d="m150 237h-35c-32 0-57-25-57-57v-100c0-4 3-7 7-7h56c4 0 7 3 7 7 0 3-3 7-7 7h-49v93c0 24 19 43 43 43h35c4 0 7 4 7 7 0 4-3 7-7 7z"/></g><g id="_173108784"><path d="m328 475h-144c-4 0-7-3-7-7s3-7 7-7h144c4 0 7 3 7 7s-3 7-7 7z"/></g><g id="_173108856"><path d="m220 217c-1 0-3 0-4-1-2-2-3-5-3-7l7-37-27-25c-2-2-2-5-2-7 1-3 4-5 6-5l37-5 16-33c1-3 3-4 6-4s5 1 6 4l16 33 37 5c2 0 5 2 6 5 0 2 0 5-2 7l-27 25 7 37c0 2-1 5-3 7-2 1-5 1-8 0l-32-18-32 18c-1 1-3 1-4 1zm36-34c1 0 2 1 3 1l23 13-5-26c0-2 1-5 2-6l19-18-26-3c-2 0-4-2-5-4l-11-24-11 24c-1 2-3 4-5 4l-26 3 19 18c1 1 2 4 2 6l-5 26 23-13c1 0 2-1 3-1z"/></g></g></g></svg>