<svg id="Layer_1" height="512" viewBox="0 0 66 66" width="512" xmlns="http://www.w3.org/2000/svg"><g id="XMLID_164_"><path id="XMLID_634_" d="m62.1 47.7-6.1-13.5c-.1-12.6-10.4-22.8-23-22.8-20.6 0-30.8 25.1-16.1 39.4 2.8 2.8 5 6.1 6.4 13.3.1.5.5.8 1 .8h22.5c.6 0 1-.4 1-1v-4.4h5.1c1.8 0 3.2-1.4 3.2-3.2v-7.2h5.2c.3 0 .7-.2.8-.5.1-.2.1-.6 0-.9zm-7.1-.6c-.6 0-1 .4-1 1v8.2c0 .7-.5 1.2-1.2 1.2h-6.1c-.6 0-1 .4-1 1v4.5h-20.7c-1.6-7.6-4.2-11-6.8-13.5-13.3-13.1-4.1-36 14.7-36 11.6 0 21 9.4 21 21 0 .4-.2-.2 5.6 12.7h-4.5z"/><path id="XMLID_665_" d="m40 21.1c-1.3-3.1-5.3-4-7.9-1.9-2.5-2.9-7.5-1.2-7.8 2.6-5.2 0-8.4 5.4-6.9 9.6-1.3 1-2 2.6-1.7 4.3s1.4 3 2.9 3.5c-.2 2.9 2.5 5.2 5.4 4.6 1.9 2.1.4-1.4 3.9 5.6.4.9 1.3 1.3 2.2 1.1s1.5-1 1.5-1.9c.1-1-1.1-3.9 1.9-5.1.9-.4 1.7-1 2.3-1.9 3.1.5 5.9-1.7 6.3-4.8 3.2.6 6.2-2.1 5.9-5.4 3.4-5.4-2-12.3-8-10.3zm1.3 13.4c-.3-.2-.7-.1-1 .1s-.5.6-.4 1c.4 2.2-1.5 4.2-3.7 4 0-1.1-.4-2.4-1.2-3.4.2-.5.8-1.3 1.8-1.1.5.1 1.1-.3 1.2-.8s-.3-1.1-.8-1.2c-1.7-.3-2.9.6-3.6 1.6-1.4-1-3.2-1.2-4.9-.5-.5.2-.7.8-.5 1.3s.8.7 1.3.5c3-1.3 5.2 2.4 4.7 4-.3.7-.9 1.2-1.6 1.6-4.3 1.8-3.1 6.1-3.1 6.5-3.2-7.1-3.2-4.3-4.2-6-.3-.4-.8-.6-1.2-.4-3.6 1.5-4.9-5-.6-5.5.3 0 .8 0 1.2.1.5.1 1.1-.2 1.2-.8.1-.5-.2-1.1-.8-1.2-.7-.1-1.4-.2-1.9-.1 0-.5.1-1.1.6-1.5.4-.3.5-1 .2-1.4s-1-.5-1.4-.2c-1.4 1.1-1.5 2.8-1.3 3.8-1 .6-1.8 1.4-2.1 2.4-.8-.4-1.3-1.2-1.4-1.8-.1-.9.2-2.1 1.4-2.6.6-.2.8-1 .4-1.5-2.8-5.3 6.3-10.3 6.7-5.5.1.7-.3 1.7-1.3 2.1-.5.2-.8.8-.6 1.3.2.4.5.6.9.6 1.1 0 3.2-1.7 3-4.2-.1-1.3-.8-2.4-1.8-3.1-.4-2.7 3.5-3.9 4.6-1.2.1.3.5.6.8.6.4 0 .7-.1.9-.4 1.4-2.2 4.6-1.6 5.4.5-1.3.8-2.3 2-2.9 3.4-.8 0-2 .1-3.1.8-1.1.8-1.7 2-1.9 3.6-.1.5.3 1 .9 1.1s1-.3 1.1-.9c.1-1 .5-1.7 1-2.2.5-.3 1-.4 1.5-.4-.1 1.2.1 2.4.5 3.5.2.5.8.7 1.3.5s.7-.8.5-1.3c-3.6-8.4 11.6-9.9 9.6-1.5-.7-1-1.7-1.4-2.7-1.3-.2-.4-.6-1.1-.3-2.2.1-.5-.2-1.1-.7-1.2s-1.1.2-1.2.7c-.4 1.5-.1 2.6.3 3.4-.3.3-.4.8-.2 1.2.3.5.9.7 1.4.4 3.9-2.2 3 7.3-2 4.8z"/><path id="XMLID_666_" d="m32.9 7.9c.6 0 1-.4 1-1v-4.9c0-.6-.4-1-1-1s-1 .4-1 1v4.9c0 .5.5 1 1 1z"/><path id="XMLID_667_" d="m22.6 8.9c.2.5.8.8 1.3.6s.8-.8.6-1.3l-1.7-4.6c-.2-.5-.8-.8-1.3-.6s-.8.8-.6 1.3z"/><path id="XMLID_668_" d="m14.4 14c.4.4 1 .5 1.4.1s.5-1 .1-1.4l-3.1-3.7c-.4-.4-1-.5-1.4-.1s-.5 1-.1 1.4z"/><path id="XMLID_669_" d="m9.6 19.8-4.2-2.4c-.5-.3-1.1-.1-1.4.4s-.1 1.1.4 1.4l4.2 2.4c.5.3 1.1.1 1.4-.4.2-.5 0-1.1-.4-1.4z"/><path id="XMLID_670_" d="m57.3 21.5 4.2-2.4c.5-.3.6-.9.4-1.4-.3-.5-.9-.6-1.4-.4l-4.2 2.4c-.5.3-.6.9-.4 1.4.3.5.9.7 1.4.4z"/><path id="XMLID_671_" d="m51.4 14 3.1-3.7c.4-.4.3-1.1-.1-1.4-.4-.4-1-.4-1.4 0l-3.1 3.7c-.4.4-.3 1.1.1 1.4.4.4 1.1.4 1.4 0z"/><path id="XMLID_672_" d="m42 9.5c.5.2 1.1-.1 1.3-.6l1.7-4.6c.2-.5-.1-1.1-.6-1.3s-1.1.1-1.3.6l-1.7 4.6c-.2.5.1 1.1.6 1.3z"/></g></svg>