<svg id="Layer_1" enable-background="new 0 0 468 468" viewBox="0 0 468 468" xmlns="http://www.w3.org/2000/svg"><g><g><g><path d="m149.381 468c-2.992 0-5.368-2.719-4.958-5.684l7.583-54.937c.378-2.735 2.905-4.644 5.636-4.27 2.735.378 4.647 2.901 4.269 5.637l-7.583 54.937c-.346 2.504-2.489 4.317-4.947 4.317z"/><path d="m322.294 468c-2.458 0-4.601-1.813-4.947-4.317l-7.583-54.937c-.378-2.735 1.534-5.259 4.269-5.637 2.729-.374 5.259 1.534 5.636 4.27l7.583 54.937c.41 2.966-1.967 5.684-4.958 5.684z"/></g><path d="m462.815 260.518-25.351-58.132c-8.611-19.745-30.717-30.119-51.42-24.133l-14.604 4.223c-14.985 4.333-22.985 21.556-16.529 35.829l3.784 8.365c4.721 10.433 17.361 15.197 27.792 10.476l13.377 31.901c-14.036-4.655-28.053.547-36.647 12.288-14.15-11.738-37.684-16.036-52.256-2.353-9.837-5.286-20.809-8.916-31.574-11.74 11.837-9.162 20.921-21.892 25.55-36.899 11.403-.856 20.419-10.459 20.419-22.14 0-8.54-4.792-15.957-11.869-19.662 9.943-44.901-20.66-83.934-62.591-96.898-21.494-6.644-44.019-5.368-55.349 16.496-1.956-3.162-5.924-3.78-9.151-2.523-7.926 3.083-21.872 19.812-28.674 37.584-5.367 14.025-6.626 29.497-3.773 46.04-6.878 3.864-11.305 11.025-11.305 18.964 0 11.681 9.016 21.284 20.419 22.14 4.629 15.007 13.714 27.736 25.55 36.899-10.764 2.823-21.733 6.452-31.568 11.736-14.574-13.685-38.107-9.388-52.262 2.356-8.589-11.736-22.605-16.945-36.647-12.288l13.377-31.901c10.432 4.721 23.071-.042 27.792-10.476l3.784-8.365c6.452-14.263-1.539-31.494-16.529-35.829l-14.604-4.223c-20.7-5.987-42.809 4.388-51.42 24.133l-25.35 58.132c-10.585 24.272-4.632 52.335 14.813 69.832 26.705 24.031 62.869 30.726 90.356 31.823l-13.228 100.172c-.35 2.651 1.527 5.169 4.167 5.59 2.742.438 5.382-1.524 5.746-4.281l15.79-119.583c5.415-41.005 40.212-61.737 77.66-69.326.586.297 1.164.608 1.759.89v20.607c0 17.509 14.243 31.753 31.754 31.753 17.507 0 31.75-14.245 31.75-31.753v-20.607c.594-.282 1.172-.593 1.759-.89 37.441 7.588 72.243 28.308 77.66 69.326l15.79 119.583c.364 2.756 3.003 4.719 5.746 4.281 2.639-.421 4.517-2.938 4.167-5.59l-13.228-100.18c27.488-1.095 63.647-7.781 90.357-31.816 19.443-17.496 25.395-45.559 14.811-69.831zm-349.898 82.244-1.248 9.451c-25.892-.916-60.171-6.97-84.984-29.297-16.238-14.612-21.196-38.081-12.334-58.4l25.351-58.132c6.61-15.158 23.582-23.123 39.478-18.524l14.604 4.223c9.235 2.671 14.196 13.26 10.196 22.101l-3.784 8.365c-3.687 8.151-12.682 6.957-19.23 3.362-2.965-1.012-5.192-.139-6.681 2.618l-20.573 49.059c-1.865 4.451 3.346 8.778 7.376 6.099 13.353-8.866 30.643-8.625 38.087 7.536 1.44 3.148 5.748 3.888 8.15 1.387 10.075-10.478 27.438-16.847 40.705-8.026-19.013 13.539-32 34.61-35.113 58.178zm54.144-195.987c5.201-13.589 14.447-25.058 19.796-29.707-.048.66-.103 1.287-.145 1.788-.404 4.651-.862 9.922 3.963 11.444 5.746 1.807 8.296-5.218 9.997-9.277 9.349-22.318 24.227-26.951 47.271-19.825 35.921 11.106 63.627 43.704 56.308 82.631l-21.166-23.149v-4.248c0-12.313-10.016-22.33-22.332-22.33-2.761 0-4.996 2.239-4.996 5s2.24 5 5.001 5c6.798 0 12.328 5.531 12.328 12.33v4.473c-20.214 25.851-60.521 25.673-80.539-.333-2.01-3.012-6.489-4.307-8.885-.735l-17.535 26.163c-.853.006-1.703.068-2.549.16-2.242-14.224-1.083-27.454 3.483-39.385zm88.692 149.467c0 11.995-9.758 21.753-21.755 21.753-11.994 0-21.751-9.758-21.751-21.753v-16.743c14.112 4.325 29.394 4.325 43.506 0zm-21.753-23.481c-29.489 0-55.116-20.033-62.319-48.716-.564-2.246-2.582-3.782-4.845-3.782-7.326 0-14.193-3.701-14.193-12.058 0-7.928 8.041-13.01 15.439-12.096 1.869.228 3.716-.611 4.767-2.178l15.395-22.968c23.941 25.923 66.522 25.608 90.064-.69l22.075 24.144c.892.977 2.135 1.559 3.457 1.621 6.459.3 11.519 5.645 11.519 12.167 0 6.729-5.42 12.203-12.083 12.203-2.837 0-6.063.091-6.955 3.638-7.205 28.682-32.831 48.715-62.321 48.715zm207.316 50.155c-24.816 22.33-59.092 28.379-84.985 29.293l-1.247-9.447c-3.112-23.566-16.098-44.635-35.109-58.176 13.26-8.828 30.628-2.452 40.7 8.023 2.399 2.495 6.682 1.757 8.142-1.369 7.492-16.11 24.647-16.484 38.096-7.554 4.033 2.677 9.246-1.635 7.376-6.099l-20.573-49.059c-1.489-2.757-3.716-3.629-6.681-2.618l-4.652 2.117c-5.434 2.474-12.144-.097-14.578-5.479l-3.784-8.365c-4-8.84.961-19.43 10.196-22.101l14.604-4.223c15.893-4.598 32.868 3.367 39.478 18.524l25.351 58.132c8.861 20.319 3.904 43.788-12.334 58.401z"/></g><g><path d="m235 54.237c-2.761 0-4.999-2.239-4.999-5v-44.237c0-2.761 2.238-5 4.999-5s4.999 2.239 4.999 5v44.237c0 2.762-2.238 5-4.999 5z"/><path d="m151.631 76.595c-1.728 0-3.409-.897-4.334-2.501l-22.118-38.311c-1.381-2.391-.561-5.449 1.83-6.83 2.391-1.383 5.45-.561 6.829 1.83l22.118 38.311c1.884 3.263-.537 7.501-4.325 7.501z"/><path d="m90.595 137.645c-.848 0-1.707-.216-2.495-.671l-38.31-22.119c-2.391-1.38-3.211-4.438-1.83-6.83 1.379-2.391 4.434-3.213 6.829-1.83l38.31 22.119c4.318 2.492 2.502 9.331-2.504 9.331z"/><path d="m379.435 137.595c-5.006 0-6.823-6.838-2.505-9.331l38.309-22.119c2.391-1.382 5.449-.561 6.829 1.83 1.381 2.392.561 5.45-1.83 6.83l-38.309 22.119c-.786.454-1.647.671-2.494.671z"/><path d="m318.377 76.566c-3.787 0-6.209-4.237-4.325-7.501l22.118-38.311c1.381-2.392 4.441-3.21 6.829-1.83 2.391 1.381 3.211 4.439 1.83 6.83l-22.118 38.311c-.925 1.604-2.607 2.501-4.334 2.501z"/></g></g><g/><g/><g/><g/><g/><g/><g/><g/><g/><g/><g/><g/><g/><g/><g/></svg>