<?xml version="1.0" encoding="iso-8859-1"?>
<!-- Generator: Adobe Illustrator 19.0.0, SVG Export Plug-In . SVG Version: 6.00 Build 0)  -->
<svg version="1.1" id="Capa_1" xmlns="http://www.w3.org/2000/svg" xmlns:xlink="http://www.w3.org/1999/xlink" x="0px" y="0px"
	 viewBox="0 0 423.253 423.253" style="enable-background:new 0 0 423.253 423.253;" xml:space="preserve">
<g>
	<g>
		<path d="M348.16,109.227H75.093c-3.773,0-6.827,3.057-6.827,6.827v177.493c0,3.77,3.053,6.827,6.827,6.827H348.16
			c3.773,0,6.827-3.057,6.827-6.827V116.053C354.987,112.283,351.933,109.227,348.16,109.227z M341.333,286.72H81.92V122.88h259.413
			V286.72z"/>
	</g>
</g>
<g>
	<g>
		<path d="M225.28,286.72H204.8c-3.773,0-6.827,3.057-6.827,6.827v40.96c0,3.77,3.053,6.827,6.827,6.827h20.48
			c3.773,0,6.827-3.057,6.827-6.827v-40.96C232.107,289.777,229.053,286.72,225.28,286.72z M218.453,327.68h-6.827v-27.307h6.827
			V327.68z"/>
	</g>
</g>
<g>
	<g>
		<path d="M211.627,0C94.933,0,0,94.937,0,211.627s94.933,211.627,211.627,211.627s211.627-94.937,211.627-211.627
			S328.32,0,211.627,0z M211.627,409.6c-109.16,0-197.973-88.81-197.973-197.973S102.467,13.653,211.627,13.653
			S409.6,102.463,409.6,211.627S320.787,409.6,211.627,409.6z"/>
	</g>
</g>
<g>
	<g>
		<path d="M356.4,60.027c-2.666-2.666-6.987-2.666-9.653,0l-286.72,286.72c-2.666,2.666-2.666,6.987,0,9.653
			c1.333,1.333,3.081,2,4.826,2c1.746,0,3.494-0.667,4.826-2L356.4,69.68C359.066,67.014,359.066,62.693,356.4,60.027z"/>
	</g>
</g>
<g>
	<g>
		<path d="M245.76,327.68h-61.44c-3.773,0-6.827,3.057-6.827,6.827s3.053,6.827,6.827,6.827h61.44c3.773,0,6.827-3.057,6.827-6.827
			S249.533,327.68,245.76,327.68z"/>
	</g>
</g>
<g>
</g>
<g>
</g>
<g>
</g>
<g>
</g>
<g>
</g>
<g>
</g>
<g>
</g>
<g>
</g>
<g>
</g>
<g>
</g>
<g>
</g>
<g>
</g>
<g>
</g>
<g>
</g>
<g>
</g>
</svg>
