<svg version="1.1" id="Capa_1" xmlns="http://www.w3.org/2000/svg" xmlns:xlink="http://www.w3.org/1999/xlink" x="0px" y="0px" viewBox="0 0 512 512" style="enable-background:new 0 0 512 512;" xml:space="preserve">
<g>
	<g>
		<path style="fill:none;stroke:#000000;stroke-width:15;stroke-linejoin:round;stroke-miterlimit:10;" d="M73.419,176.344&#10;&#9;&#9;&#9;c-14.897,3.526-25.96,16.602-25.96,32.199v12.348c0,5.523,4.477,10,10,10h72.332c5.523,0,10-4.477,10-10v-12.348&#10;&#9;&#9;&#9;c0-15.598-11.063-28.674-25.96-32.2"/>
		<path style="fill:none;stroke:#000000;stroke-width:15;stroke-linejoin:round;stroke-miterlimit:10;" d="M398.17,176.344&#10;&#9;&#9;&#9;c-14.897,3.526-25.96,16.602-25.96,32.2v12.348c0,5.523,4.477,10,10,10h72.332c5.523,0,10-4.477,10-10v-12.348&#10;&#9;&#9;&#9;c0-15.598-11.063-28.674-25.96-32.2"/>
		<path style="fill:none;stroke:#000000;stroke-width:15;stroke-linejoin:round;stroke-miterlimit:10;" d="M73.419,449.953&#10;&#9;&#9;&#9;c-14.897,3.526-25.96,16.602-25.96,32.199V494.5c0,5.523,4.477,10,10,10h72.332c5.523,0,10-4.477,10-10v-12.348&#10;&#9;&#9;&#9;c0-15.598-11.063-28.674-25.96-32.2"/>
		<path style="fill:none;stroke:#000000;stroke-width:15;stroke-linejoin:round;stroke-miterlimit:10;" d="M398.17,449.953&#10;&#9;&#9;&#9;c-14.897,3.526-25.96,16.602-25.96,32.2V494.5c0,5.523,4.477,10,10,10h72.332c5.523,0,10-4.477,10-10v-12.348&#10;&#9;&#9;&#9;c0-15.598-11.063-28.674-25.96-32.2"/>
		<g id="_x3C_Radial_Repeat_x3E__00000181766015786480685280000004962010398606630824_">
			
				<line style="fill:none;stroke:#000000;stroke-width:15;stroke-linecap:round;stroke-linejoin:round;stroke-miterlimit:10;" x1="162.721" y1="254.795" x2="169.329" y2="254.795"/>
		</g>
		<g id="_x3C_Radial_Repeat_x3E__00000039835186370809121650000017678968148338588288_">
			
				<line style="fill:none;stroke:#000000;stroke-width:15;stroke-linecap:round;stroke-linejoin:round;stroke-miterlimit:10;" x1="175.218" y1="208.156" x2="180.941" y2="211.46"/>
		</g>
		<g id="_x3C_Radial_Repeat_x3E__00000083784037813632662330000017187756413680908693_">
			
				<line style="fill:none;stroke:#000000;stroke-width:15;stroke-linecap:round;stroke-linejoin:round;stroke-miterlimit:10;" x1="209.36" y1="174.013" x2="212.665" y2="179.736"/>
		</g>
		<g id="_x3C_Radial_Repeat_x3E__00000063616159626335821370000000321582490792042677_">
			
				<line style="fill:none;stroke:#000000;stroke-width:15;stroke-linecap:round;stroke-linejoin:round;stroke-miterlimit:10;" x1="302.64" y1="174.013" x2="299.335" y2="179.736"/>
		</g>
		<g id="_x3C_Radial_Repeat_x3E__00000132056721222238284790000007512454159029920687_">
			
				<line style="fill:none;stroke:#000000;stroke-width:15;stroke-linecap:round;stroke-linejoin:round;stroke-miterlimit:10;" x1="336.783" y1="208.156" x2="331.059" y2="211.46"/>
		</g>
		<g id="_x3C_Radial_Repeat_x3E__00000097474271526161031750000008338485239504116924_">
			
				<line style="fill:none;stroke:#000000;stroke-width:15;stroke-linecap:round;stroke-linejoin:round;stroke-miterlimit:10;" x1="349.278" y1="254.795" x2="342.67" y2="254.795"/>
		</g>
		
			<line style="fill:none;stroke:#000000;stroke-width:15;stroke-linecap:round;stroke-linejoin:round;stroke-miterlimit:10;" x1="206.948" y1="350.025" x2="206.948" y2="423.608"/>
		
			<line style="fill:none;stroke:#000000;stroke-width:15;stroke-linecap:round;stroke-linejoin:round;stroke-miterlimit:10;" x1="305.052" y1="423.608" x2="305.052" y2="350.025"/>
		
			<line style="fill:none;stroke:#000000;stroke-width:15;stroke-linecap:round;stroke-linejoin:round;stroke-miterlimit:10;stroke-dasharray:10,35;" x1="139.79" y1="482.152" x2="372.21" y2="482.152"/>
		
			<line style="fill:none;stroke:#000000;stroke-width:15;stroke-linecap:round;stroke-linejoin:round;stroke-miterlimit:10;stroke-dasharray:10,35;" x1="418.375" y1="398.828" x2="418.375" y2="231.682"/>
		
			<line style="fill:none;stroke:#000000;stroke-width:15;stroke-linecap:round;stroke-linejoin:round;stroke-miterlimit:10;stroke-dasharray:10,35;" x1="93.625" y1="398.828" x2="93.625" y2="230.891"/>
		
			<line style="fill:none;stroke:#000000;stroke-width:15;stroke-linecap:round;stroke-linejoin:round;stroke-miterlimit:10;" x1="233.763" y1="54.82" x2="233.763" y2="61.662"/>
		
			<line style="fill:none;stroke:#000000;stroke-width:15;stroke-linecap:round;stroke-linejoin:round;stroke-miterlimit:10;" x1="278.237" y1="54.82" x2="278.237" y2="61.662"/>
		<path style="fill:none;stroke:#000000;stroke-width:15;stroke-linecap:round;stroke-linejoin:round;stroke-miterlimit:10;" d="&#10;&#9;&#9;&#9;M235.329,91.347c1.029,10.513,9.889,18.73,20.671,18.73c10.782,0,19.642-8.216,20.671-18.73"/>
		
			<ellipse style="fill:none;stroke:#000000;stroke-width:15;stroke-linejoin:round;stroke-miterlimit:10;" cx="93.625" cy="154.572" rx="30.129" ry="29.353"/>
		
			<ellipse style="fill:none;stroke:#000000;stroke-width:15;stroke-linejoin:round;stroke-miterlimit:10;" cx="418.375" cy="154.572" rx="30.129" ry="29.353"/>
		
			<ellipse style="fill:none;stroke:#000000;stroke-width:15;stroke-linejoin:round;stroke-miterlimit:10;" cx="93.625" cy="428.181" rx="30.129" ry="29.353"/>
		
			<ellipse style="fill:none;stroke:#000000;stroke-width:15;stroke-linejoin:round;stroke-miterlimit:10;" cx="418.375" cy="428.181" rx="30.129" ry="29.353"/>
		
			<circle style="fill:none;stroke:#000000;stroke-width:15;stroke-linejoin:round;stroke-miterlimit:10;" cx="256" cy="249.635" r="48.684"/>
		<path style="fill:none;stroke:#000000;stroke-width:15;stroke-linecap:round;stroke-linejoin:round;stroke-miterlimit:10;" d="&#10;&#9;&#9;&#9;M185.041,94.134c5.596,27.995,27.337,50.155,55.11,56.362c1.464,0.327,2.738,1.22,3.488,2.519l7.658,13.263&#10;&#9;&#9;&#9;c2.091,3.621,7.317,3.621,9.407,0l7.62-13.198c0.749-1.297,1.997-2.244,3.459-2.569c32.38-7.204,56.595-36.082,56.595-70.633&#10;&#9;&#9;&#9;c0-41.136-34.317-74.256-75.884-72.295c-31.085,1.467-57.176,22.859-65.816,51.551"/>
		<path style="fill:none;stroke:#000000;stroke-width:15;stroke-linecap:round;stroke-linejoin:round;stroke-miterlimit:10;" d="&#10;&#9;&#9;&#9;M340.809,367.907v-33.783c0-19.774-16.03-35.805-35.805-35.805h-27.196"/>
		<path style="fill:none;stroke:#000000;stroke-width:15;stroke-linecap:round;stroke-linejoin:round;stroke-miterlimit:10;" d="&#10;&#9;&#9;&#9;M171.191,371.912v41.696c0,5.523,4.477,10,10,10h149.618c5.523,0,10-4.477,10-10v-10.701"/>
		<path style="fill:none;stroke:#000000;stroke-width:15;stroke-linecap:round;stroke-linejoin:round;stroke-miterlimit:10;" d="&#10;&#9;&#9;&#9;M277.809,298.319h-70.813c-19.774,0-35.805,16.03-35.805,35.805v2.788"/>
	</g>
</g>
<g>
</g>
<g>
</g>
<g>
</g>
<g>
</g>
<g>
</g>
<g>
</g>
<g>
</g>
<g>
</g>
<g>
</g>
<g>
</g>
<g>
</g>
<g>
</g>
<g>
</g>
<g>
</g>
<g>
</g>
</svg>