<?xml version="1.0" encoding="UTF-8"?>
<svg id="Layer_1" data-name="Layer 1" xmlns="http://www.w3.org/2000/svg" viewBox="0 0 1080 1080">
  <defs>
    <style>
      .cls-1 {
        fill: #fff;
      }
    </style>
  </defs>
  <g>
    <path class="cls-1" d="M266.88,740.07c-2.68-2.31-5.57-4.02-8.69-5.12-3.12-1.1-6.21-1.65-9.29-1.65h-22.55c-2.71,0-4.66.4-5.83,1.21-1.17.81-1.91,1.85-2.2,3.14-.29,1.28-.44,2.62-.44,4.01v60.06c0,1.39.15,2.75.44,4.07.29,1.32,1.01,2.38,2.15,3.19,1.14.81,3.06,1.21,5.77,1.21s4.66-.4,5.83-1.21c1.17-.81,1.91-1.85,2.2-3.13.29-1.28.44-2.62.44-4.02v-14.41h14.08c3.08,0,6.2-.57,9.35-1.71,3.15-1.14,6.07-2.82,8.75-5.06,2.68-2.24,4.84-5.04,6.49-8.42,1.65-3.37,2.47-7.3,2.47-11.77s-.83-8.51-2.47-11.88c-1.65-3.37-3.81-6.21-6.49-8.52ZM257.64,766.31c-1.06,1.54-2.38,2.66-3.96,3.35-1.58.7-3.17,1.04-4.79,1.04h-14.19v-20.68h14.08c2.05,0,3.87.44,5.44,1.32,1.58.88,2.81,2.09,3.69,3.63s1.32,3.34,1.32,5.39c0,2.42-.53,4.4-1.59,5.94Z"/>
    <path class="cls-1" d="M306.92,794.58c-.92-.22-1.81-.33-2.69-.33-.95,0-1.72-.07-2.31-.22-.59-.15-1.04-.44-1.38-.88s-.55-1.04-.66-1.81c-.11-.77-.17-1.74-.17-2.92v-50.05c0-1.47-.15-2.82-.44-4.07-.29-1.25-1.01-2.27-2.15-3.08-1.14-.81-3.02-1.21-5.67-1.21s-4.55.4-5.72,1.21c-1.17.81-1.89,1.83-2.14,3.08-.26,1.25-.39,2.6-.39,4.07v50.82c0,3.59.24,6.62.71,9.08.48,2.46,1.23,4.45,2.26,5.99,1.03,1.54,2.36,2.75,4.01,3.63,1.65.88,3.63,1.48,5.94,1.81,2.31.33,4.97.5,7.98.5.95,0,1.89-.11,2.8-.33.92-.22,1.71-.92,2.37-2.09.66-1.17.99-3.08.99-5.72s-.33-4.4-.99-5.5-1.45-1.76-2.37-1.98Z"/>
    <path class="cls-1" d="M366.75,756.41c-1.14-.81-3.03-1.21-5.67-1.21-2.79,0-4.82.46-6.11,1.38-1.28.92-1.89,2.25-1.81,4.01l.88,1.54c-.66-.95-1.63-1.94-2.92-2.97-1.28-1.03-2.88-1.93-4.79-2.7-1.91-.77-4.22-1.15-6.93-1.15-3.37,0-6.56.73-9.57,2.2-3.01,1.47-5.7,3.46-8.08,5.99-2.38,2.53-4.25,5.43-5.61,8.69-1.36,3.26-2.04,6.69-2.04,10.29s.68,7.15,2.04,10.45c1.36,3.3,3.21,6.25,5.56,8.85,2.35,2.6,5.04,4.64,8.08,6.1,3.04,1.47,6.25,2.2,9.62,2.2,2.93,0,5.39-.42,7.37-1.26,1.98-.84,3.59-1.8,4.84-2.86,1.25-1.06,2.09-1.96,2.53-2.69l-1.1,1.87c0,1.39.64,2.57,1.92,3.52,1.28.95,3.28,1.43,6,1.43s4.64-.38,5.78-1.15c1.14-.77,1.83-1.81,2.09-3.14.26-1.32.38-2.68.38-4.07v-37.95c0-1.47-.13-2.86-.38-4.18-.26-1.32-.95-2.38-2.09-3.19ZM350.8,788.2c-.92,1.69-2.16,3.02-3.74,4.01-1.58.99-3.32,1.49-5.22,1.49-2.13,0-4.05-.5-5.78-1.49-1.72-.99-3.08-2.31-4.07-3.96-.99-1.65-1.48-3.46-1.48-5.44,0-2.13.5-4.03,1.48-5.72.99-1.69,2.31-3.04,3.96-4.07,1.65-1.03,3.54-1.54,5.66-1.54,1.91,0,3.67.5,5.28,1.48,1.61.99,2.9,2.31,3.85,3.96.95,1.65,1.43,3.54,1.43,5.67s-.46,3.92-1.38,5.61Z"/>
    <path class="cls-1" d="M428.08,755.64c-3.01-1.17-5.26-1.48-6.76-.94-1.5.55-2.88,2.25-4.12,5.12l-10.26,22.94-15.7-24.04c-1.61-2.49-3.21-3.94-4.79-4.35-1.58-.4-3.79.27-6.66,2.04-2.57,1.69-4.01,3.34-4.34,4.95-.33,1.61.31,3.63,1.92,6.05l21.66,33-9.45,21.12c-1.25,2.71-1.63,4.88-1.16,6.49.48,1.61,2.22,3.08,5.23,4.4,3.01,1.32,5.24,1.69,6.71,1.1,1.47-.59,2.82-2.31,4.07-5.17l27.72-62.15c1.17-2.57,1.52-4.62,1.04-6.16-.48-1.54-2.18-3.01-5.12-4.4Z"/>
    <path class="cls-1" d="M500.24,733.53c-1.03-.22-2.16-.33-3.41-.33h-52.25c-1.17,0-2.31.11-3.41.33-1.1.22-1.98.82-2.64,1.81-.66.99-.99,2.66-.99,5s.33,4.02.99,5c.66.99,1.54,1.61,2.64,1.87,1.1.26,2.24.38,3.41.38h17.93v54.34c0,1.39.11,2.73.33,4.01.22,1.28.92,2.31,2.09,3.08,1.17.77,3.08,1.16,5.72,1.16s4.64-.39,5.77-1.16c1.14-.77,1.83-1.78,2.09-3.02.26-1.25.39-2.57.39-3.96v-54.45h17.71c1.25,0,2.42-.11,3.52-.33,1.1-.22,2-.84,2.7-1.87.7-1.03,1.04-2.68,1.04-4.95,0-2.42-.35-4.12-1.04-5.11-.7-.99-1.56-1.6-2.58-1.81Z"/>
    <path class="cls-1" d="M551.77,758.66c-3.63-2.31-7.72-3.46-12.26-3.46-2.86,0-5.33.62-7.42,1.87-2.09,1.25-3.79,2.57-5.12,3.96v-22.44c0-1.47-.13-2.82-.38-4.07-.26-1.25-.95-2.27-2.09-3.08-1.14-.81-3.06-1.21-5.78-1.21s-4.55.39-5.72,1.16c-1.17.77-1.91,1.78-2.2,3.02-.29,1.25-.44,2.6-.44,4.07v63.36c0,1.47.13,2.84.39,4.12.26,1.28.97,2.31,2.14,3.08,1.17.77,3.08,1.16,5.72,1.16s4.64-.39,5.78-1.16c1.14-.77,1.85-1.78,2.15-3.02.29-1.25.44-2.6.44-4.07v-21.89c.29-2.35,1.45-4.35,3.46-6,2.02-1.65,4.38-2.48,7.1-2.48,2.05,0,3.79.44,5.22,1.32,1.43.88,2.51,2.07,3.25,3.57.73,1.5,1.1,3.32,1.1,5.45v19.91c0,1.47.13,2.84.38,4.12.26,1.28.99,2.31,2.2,3.08s3.1,1.16,5.67,1.16c2.79,0,4.73-.39,5.83-1.16,1.1-.77,1.8-1.78,2.09-3.02.29-1.25.44-2.6.44-4.07v-19.91c0-5.21-1.08-9.83-3.25-13.86-2.16-4.03-5.06-7.2-8.69-9.51Z"/>
    <path class="cls-1" d="M586.31,756.52c-1.14-.81-3.02-1.21-5.67-1.21s-4.66.39-5.83,1.15c-1.17.77-1.89,1.78-2.14,3.03-.26,1.25-.38,2.6-.38,4.07v38.39c0,1.39.13,2.73.38,4.01.26,1.28.95,2.31,2.09,3.08,1.14.77,3.06,1.16,5.78,1.16s4.64-.37,5.77-1.1c1.14-.73,1.83-1.74,2.09-3.02.26-1.28.39-2.62.39-4.02v-38.28c0-1.54-.13-2.93-.39-4.18-.26-1.25-.95-2.27-2.09-3.08Z"/>
    <path class="cls-1" d="M586.47,731.44c-1.17-.81-3.12-1.21-5.83-1.21s-4.77.39-5.94,1.16c-1.17.77-1.91,1.8-2.2,3.08-.29,1.28-.44,2.7-.44,4.24s.13,2.86.39,4.18c.26,1.32.97,2.38,2.14,3.19,1.17.81,3.15,1.21,5.94,1.21s4.77-.39,5.94-1.16c1.17-.77,1.89-1.81,2.15-3.13.26-1.32.38-2.71.38-4.18s-.13-2.86-.38-4.18c-.26-1.32-.97-2.38-2.15-3.19Z"/>
    <path class="cls-1" d="M645.87,762.68c-1.91-2.42-4.24-4.27-6.99-5.56-2.75-1.28-5.88-1.92-9.4-1.92-1.69,0-3.39.26-5.12.77-1.72.51-3.34,1.23-4.84,2.15-1.5.92-2.75,1.94-3.74,3.08-.53.61-.93,1.21-1.21,1.8l.17-.54c-.15-.29-.22-.82-.22-1.59s-.17-1.6-.5-2.48-1.04-1.63-2.15-2.25c-1.1-.62-2.82-.94-5.17-.94-2.71,0-4.64.37-5.77,1.1-1.14.73-1.85,1.7-2.15,2.91-.29,1.21-.44,2.51-.44,3.91v38.72c0,1.39.13,2.73.39,4.02.26,1.28.95,2.31,2.09,3.08,1.14.77,3.06,1.15,5.77,1.15s4.64-.37,5.78-1.1c1.14-.73,1.83-1.74,2.09-3.02.26-1.28.38-2.62.38-4.01v-20.02c0-2.13.42-3.96,1.27-5.5.84-1.54,2.04-2.75,3.58-3.63,1.54-.88,3.37-1.32,5.5-1.32s3.92.42,5.39,1.27c1.47.84,2.57,2.03,3.3,3.57.73,1.54,1.1,3.41,1.1,5.61v19.91c0,1.39.15,2.73.44,4.02.29,1.28,1.01,2.31,2.15,3.08,1.14.77,3.1,1.15,5.88,1.15s4.64-.37,5.77-1.1c1.14-.73,1.83-1.74,2.09-3.02.26-1.28.38-2.62.38-4.01v-20.02c0-3.89-.5-7.46-1.49-10.73-.99-3.26-2.44-6.1-4.34-8.52Z"/>
    <path class="cls-1" d="M705.71,795.24l-16.28-12.76,11.88-10.78c2.2-2.2,3.34-4.09,3.41-5.67.07-1.58-1.06-3.65-3.41-6.21-1.39-1.54-2.71-2.53-3.96-2.97-1.25-.44-2.51-.4-3.79.11-1.28.51-2.66,1.47-4.12,2.86l-12.32,11.88v-33.22c0-1.47-.13-2.84-.38-4.12-.26-1.28-.95-2.31-2.09-3.08-1.14-.77-3.03-1.15-5.67-1.15s-4.55.38-5.72,1.15c-1.17.77-1.91,1.78-2.2,3.03-.29,1.25-.44,2.6-.44,4.07v63.47c0,1.47.13,2.84.39,4.12.26,1.28.97,2.31,2.14,3.08,1.17.77,3.08,1.16,5.72,1.16s4.64-.39,5.78-1.16c1.14-.77,1.83-1.78,2.09-3.02.26-1.25.38-2.6.38-4.07v-9.46l17.38,15.18c1.54,1.39,2.9,2.33,4.07,2.81,1.17.48,2.37.46,3.58-.06,1.21-.51,2.62-1.61,4.23-3.3,2.13-2.35,3.12-4.42,2.97-6.22-.15-1.8-1.36-3.69-3.63-5.67Z"/>
    <path class="cls-1" d="M764.84,784.73c1.94-1.94,2.92-4.93,2.92-8.96,0-2.27-.5-4.66-1.49-7.15-.99-2.49-2.49-4.82-4.51-6.98-2.02-2.16-4.58-3.92-7.7-5.28-3.12-1.36-6.8-2.03-11.05-2.03-5.72,0-10.78,1.23-15.18,3.68-4.4,2.46-7.85,5.81-10.34,10.07-2.49,4.25-3.74,9.13-3.74,14.63,0,3.37.57,6.75,1.71,10.12,1.14,3.37,2.88,6.44,5.22,9.19,2.35,2.75,5.37,4.97,9.08,6.66,3.7,1.69,8.12,2.53,13.25,2.53,4.62,0,8.56-.4,11.83-1.21,3.26-.81,5.79-1.91,7.59-3.3,1.8-1.39,2.7-2.97,2.7-4.73,0-.73-.09-1.47-.28-2.2-.18-.73-.53-1.5-1.04-2.31-.73-1.39-1.56-2.44-2.47-3.13-.92-.7-1.93-1.01-3.03-.94-.59.07-1.19.22-1.82.44-.62.22-1.34.5-2.14.82-.81.33-1.69.66-2.64.99-.95.33-2.09.59-3.41.77-1.32.18-2.86.27-4.62.27-2.05,0-4-.37-5.83-1.1-1.83-.73-3.36-1.76-4.57-3.08-1.21-1.32-1.89-2.93-2.04-4.84h26.18c3.01,0,5.48-.97,7.42-2.92ZM751.2,778.02c-.55.4-1.41.6-2.58.6h-17.38c0-1.69.5-3.26,1.49-4.73.99-1.47,2.37-2.64,4.12-3.52s3.78-1.32,6.05-1.32c1.76,0,3.32.27,4.68.82,1.36.55,2.44,1.32,3.24,2.31.81.99,1.21,2.15,1.21,3.47,0,1.17-.27,1.96-.82,2.36Z"/>
    <path class="cls-1" d="M811.86,756.79c-.88-.55-1.85-.99-2.92-1.32-1.06-.33-2.09-.55-3.08-.66-.99-.11-1.89-.17-2.7-.17-2.05,0-3.87.29-5.44.88-1.58.59-2.92,1.3-4.02,2.15-1.07.82-1.9,1.6-2.52,2.35-.07-.42-.18-.87-.34-1.36-.29-.92-1.01-1.72-2.15-2.42-1.14-.7-2.99-1.04-5.55-1.04-2.71,0-4.64.38-5.78,1.15-1.14.77-1.85,1.78-2.14,3.02-.29,1.25-.44,2.6-.44,4.07v38.39c0,1.39.13,2.75.38,4.07.26,1.32.95,2.36,2.09,3.13,1.14.77,3.06,1.16,5.77,1.16s4.66-.37,5.83-1.1c1.17-.73,1.89-1.74,2.15-3.02.26-1.28.38-2.62.38-4.02v-24.2c0-1.1.24-2.11.71-3.02.48-.92,1.14-1.69,1.98-2.31.84-.62,1.76-1.08,2.75-1.38.99-.29,2.03-.44,3.13-.44,1.17,0,1.98.09,2.42.27.44.18.83.39,1.16.6.33.22.75.44,1.26.66.51.22,1.39.33,2.64.33,2.13,0,3.89-1.04,5.28-3.14,1.39-2.09,2.09-4.64,2.09-7.64,0-1.17-.27-2.16-.83-2.97-.55-.81-1.26-1.48-2.14-2.04Z"/>
    <path class="cls-1" d="M862.84,785.34c-1.06-1.98-2.46-3.56-4.18-4.73-1.72-1.17-3.63-2.07-5.72-2.69-2.09-.62-4.12-1.12-6.1-1.48-1.47-.29-2.82-.59-4.07-.88-1.25-.29-2.35-.62-3.3-.99-.95-.37-1.71-.83-2.25-1.38-.55-.55-.83-1.3-.83-2.25,0-.73.22-1.38.66-1.93.44-.55,1.1-.99,1.98-1.32.88-.33,1.94-.5,3.19-.5,1.47,0,2.95.29,4.46.88,1.5.59,2.93,1.21,4.29,1.87,1.36.66,2.62,1.14,3.79,1.43.95.22,1.87.05,2.75-.5s1.72-1.45,2.53-2.7c1.32-1.83,1.94-3.63,1.87-5.39-.07-1.76-1.21-3.15-3.41-4.18-1.25-.73-2.49-1.36-3.74-1.87-1.25-.51-2.51-.95-3.79-1.32-1.28-.37-2.58-.62-3.91-.77-1.32-.15-2.64-.22-3.96-.22-4.62,0-8.54.64-11.77,1.92-3.23,1.28-5.68,3.14-7.37,5.56-1.69,2.42-2.53,5.43-2.53,9.02,0,2.71.4,5,1.21,6.88.81,1.87,1.91,3.45,3.3,4.73,1.39,1.28,2.93,2.33,4.62,3.13,1.69.81,3.45,1.47,5.28,1.98,1.32.37,2.62.71,3.9,1.04,1.28.33,2.48.64,3.58.94,1.1.29,2.07.64,2.92,1.04.84.4,1.5.86,1.98,1.38.48.51.71,1.17.71,1.98,0,1.1-.57,1.96-1.71,2.58-1.14.62-2.73.94-4.79.94-1.39,0-2.75-.24-4.07-.71-1.32-.48-2.58-1.03-3.79-1.65-1.21-.62-2.42-1.21-3.63-1.76-1.21-.55-2.4-.94-3.58-1.15-.95-.29-1.8-.33-2.53-.11-.73.22-1.39.73-1.98,1.54-.73,1.03-1.36,2-1.87,2.91-.51.92-.86,1.8-1.04,2.64-.18.84-.2,1.63-.05,2.37.22,1.47,1.06,2.77,2.53,3.9,1.47,1.14,3.3,2.13,5.5,2.97,2.2.84,4.46,1.48,6.76,1.92s4.46.66,6.43.66c7.48,0,13.24-1.54,17.27-4.62,4.03-3.08,6.05-7.52,6.05-13.31,0-3.23-.53-5.83-1.59-7.81Z"/>
  </g>
  <g>
    <g>
      <ellipse class="cls-1" cx="483.36" cy="399.95" rx="25.02" ry="31.06" transform="translate(-138.88 319.81) rotate(-32.27)"/>
      <path class="cls-1" d="M620.68,452.85l-2.59-23.65c4.27-15.34-1.67-30.68-14.01-35.06-12.33-4.38-26.62,3.79-32.97,18.39l-16.92,16.73,13.8.55c.7,10.63,6.3,19.68,15.31,22.88,9.01,3.2,19.06-.3,26.31-8.11l11.06,8.28Z"/>
      <path class="cls-1" d="M529.54,540.8h-.66c-.23-22.57-3.29-57.65-18.95-74.5-2.23-2.4-4.71-4.43-7.49-6.01-6.77-3.83-15.22-4.93-25.78-1.99,0,0-16.8,6.37-23.01-2.46-6.21-8.83-.36-23.5,19.13-20.88,7.54,1.01,19.03,2.88,29.73,11.47,3.03,2.43,5.99,5.4,8.78,9.05,11.24,14.66,19.67,40.2,18.24,85.32Z"/>
      <path class="cls-1" d="M526.85,431.54c-6.81,12.72,1.45,63.55,1.25,64.52-.07-.1-3.8-18.75-7.35-31-5.47-18.92-9.9-42.95.27-53.64,8.22-8.82,16.59-9.36,22.03-5.98,4.25,2.75,4.51,8.81.64,13.03-4.37,4.77-11.65,4.12-16.85,13.08Z"/>
      <path class="cls-1" d="M550.25,586.92c-.02-.2-.04-.4-.06-.6h.04v.6Z"/>
      <path class="cls-1" d="M550.28,587.24s-.01-.11-.01-.16c0-.05,0-.1-.01-.16,0-.17-.02-.37-.04-.6h.04l.03.92Z"/>
      <path class="cls-1" d="M550.28,587.37c0-.07-.01-.17-.02-.29,0,.09.01.19.02.29Z"/>
      <path class="cls-1" d="M624.92,481.78c-6.21,8.83-23.01,2.46-23.01,2.46-10.56-2.94-19.02-1.84-25.79,1.99-2.77,1.57-5.26,3.61-7.49,6.01-10.37,11.16-15.22,30.32-17.37,48.56h-1.89c1.9-29.43,9.03-47.8,17.9-59.38,2.79-3.64,5.76-6.61,8.79-9.04,10.69-8.59,22.19-10.46,29.72-11.47,19.49-2.62,25.34,12.05,19.13,20.88Z"/>
      <path class="cls-1" d="M551.74,457.46c6.81,12.72-1.45,63.55-1.25,64.52.07-.1,3.8-18.75,7.35-31,5.47-18.92,9.9-42.95-.27-53.64-8.22-8.82-16.59-9.36-22.03-5.98-4.25,2.75-4.51,8.81-.64,13.03,4.37,4.77,11.65,4.12,16.85,13.08Z"/>
    </g>
    <g>
      <g>
        <path class="cls-1" d="M482.05,559.77c-.6,6.16,4.25,11.37,10.29,11.37l56.88.04h.65l35.47.02c3.7,0,7.16,1.01,10.14,2.77h0s0,0,0,0c3.72,2.2,6.66,5.57,8.33,9.6.97,2.35,1.51,4.92,1.51,7.61,0,1.81-.25,3.61-.73,5.35-2.39,8.62-10.31,14.64-19.26,14.64h-92.11c-1.33,0-2.54-.54-3.42-1.41-.87-.88-1.41-2.08-1.41-3.42,0-2.66,2.16-4.82,4.83-4.82h92.11c4.63,0,8.72-3.11,9.96-7.56.07-.26.13-.53.18-.8.13-.65.19-1.31.19-1.98,0-3.01-1.29-5.72-3.36-7.61-1.83-1.69-4.29-2.72-6.98-2.72l-35.23-.03h-.33l-57.44-.04c-11.02,0-19.98-8.96-19.98-19.98s8.96-19.98,19.98-19.98l36.55-.02h20.49s1.89-.01,1.89-.01l41.07-.03c39.32-20.2,63.69-60.06,63.69-104.3,0-66.09-54.99-119.58-121.62-117.13-61.49,2.27-111.34,52.83-112.75,114.35-.97,41.81,19.78,80.09,55.09,102.18-2.19,1.31-4.53,3.52-6.7,7.13-36.39-23.51-58.06-63.08-58.06-106.52,0-69.91,56.84-126.79,126.73-126.85,68.4-.06,125.21,55.19,126.93,123.57,1.24,49.59-25.81,94.53-69.96,116.71l-1,.51-9.31.08h-92.58c-5.4,0-10.23,3.93-10.75,9.3Z"/>
        <path class="cls-1" d="M605.31,575.96c0,2.7-.54,5.27-1.51,7.61-1.67,4.02-4.62,7.4-8.33,9.58-2.98,1.76-6.44,2.78-10.15,2.78l-92.99.07c-5.7,0-10.34,4.64-10.34,10.33s4.64,10.34,10.34,10.34h10.27l10.39-.17h71.44c2.66,0,4.82,2.16,4.82,4.82,0,27.98-22.62,50.6-50.43,50.6-22.26,0-42.16-14.9-48.41-36.24-.75-2.55.72-5.24,3.27-5.98,2.56-.76,5.24.71,5.98,3.27,5.05,17.25,21.15,29.3,39.15,29.3,20.92,0,38.21-15.83,40.53-36.14h-66.28l-10.39.17h-10.35c-11.02,0-19.98-8.96-19.98-19.98s8.96-19.98,19.98-19.98l57.86-.04h.06l35.08-.03c2.69,0,5.14-1.03,6.98-2.72,2.07-1.89,3.36-4.6,3.36-7.61,0-.68-.06-1.34-.19-1.98h0c-.92-4.76-5.12-8.36-10.14-8.36h-46.5c-8.31,0-49.19,1.61-49.19-7.54.58-1.02,1.67-1.68,3.03-2.1h92.66c11.02,0,19.98,8.96,19.98,19.98Z"/>
      </g>
      <g>
        <path class="cls-1" d="M551.02,258.21c0,8-11.02,22.28-11.02,22.28,0,0-11.02-14.28-11.02-22.28s4.93-14.48,11.02-14.48,11.02,6.48,11.02,14.48Z"/>
        <path class="cls-1" d="M460.26,276c4,6.93,1.6,24.8,1.6,24.8,0,0-16.68-6.86-20.68-13.78-4-6.93-2.97-15.01,2.3-18.05,5.27-3.04,12.78.11,16.78,7.03Z"/>
        <path class="cls-1" d="M390.56,336.78c6.93,4,13.78,20.68,13.78,20.68,0,0-17.88,2.4-24.8-1.6-6.93-4-10.07-11.51-7.03-16.78,3.04-5.27,11.12-6.3,18.05-2.3Z"/>
        <path class="cls-1" d="M360.58,424.27c8,0,22.28,11.02,22.28,11.02,0,0-14.28,11.02-22.28,11.02s-14.48-4.93-14.48-11.02,6.48-11.02,14.48-11.02Z"/>
        <path class="cls-1" d="M378.37,515.03c6.93-4,24.8-1.6,24.8-1.6,0,0-6.86,16.68-13.78,20.68-6.93,4-15.01,2.97-18.05-2.3-3.04-5.27.11-12.78,7.03-16.78Z"/>
        <path class="cls-1" d="M439.15,584.74c4-6.93,20.68-13.78,20.68-13.78,0,0,2.4,17.88-1.6,24.8-4,6.93-11.51,10.07-16.78,7.03-5.27-3.04-6.3-11.12-2.3-18.05Z"/>
        <path class="cls-1" d="M619.74,276c-4,6.93-1.6,24.8-1.6,24.8,0,0,16.68-6.86,20.68-13.78,4-6.93,2.97-15.01-2.3-18.05-5.27-3.04-12.78.11-16.78,7.03Z"/>
        <path class="cls-1" d="M689.45,336.78c-6.93,4-13.78,20.68-13.78,20.68,0,0,17.88,2.4,24.8-1.6,6.93-4,10.07-11.51,7.03-16.78-3.04-5.27-11.12-6.3-18.05-2.3Z"/>
        <path class="cls-1" d="M719.42,424.27c-8,0-22.28,11.02-22.28,11.02,0,0,14.28,11.02,22.28,11.02s14.48-4.93,14.48-11.02-6.48-11.02-14.48-11.02Z"/>
        <path class="cls-1" d="M701.63,515.03c-6.93-4-24.8-1.6-24.8-1.6,0,0,6.86,16.68,13.78,20.68,6.93,4,15.01,2.97,18.05-2.3,3.04-5.27-.11-12.78-7.03-16.78Z"/>
        <path class="cls-1" d="M640.85,584.74c-4-6.93-20.68-13.78-20.68-13.78,0,0-2.4,17.88,1.6,24.8,4,6.93,11.51,10.07,16.78,7.03,5.27-3.04,6.3-11.12,2.3-18.05Z"/>
      </g>
    </g>
  </g>
</svg>