<svg id="Layer_1" viewBox="0 0 512 512" xmlns="http://www.w3.org/2000/svg" data-name="Layer 1"><path d="m319.131 324.062c-6.891 20.396-17.266 39.861-28.251 60.471-19.393 36.382-39.445 74.003-38.129 116.249.06 1.894-.651 3.729-1.97 5.09s-3.132 2.128-5.026 2.128h-108.537c-1.923 0-3.762-.791-5.083-2.188-1.322-1.396-2.012-3.275-1.906-5.195.217-3.953.319-28.759.232-31.18-.35-4.271-1.387-9.433-4.25-11.593-10.752 2.438-22.139 4.455-34.128 6.044-.105.014-.211.025-.317.034-11.012.954-21.481 1.324-28.56-4.483-8.939-7.337-7.429-19.338-6.617-25.784.412-3.271.415-4.654.353-5.236-2.969-5.673-2.642-11.959-1.646-14.912.089-.263.193-.521.312-.771.577-1.213 1.276-2.384 2.093-3.509-1.004-.994-1.903-2.165-2.639-3.575-2.352-4.512-2.15-9.709.646-16.308.626-3.161.348-3.73.252-3.925-.95-1.938-3.004-2.691-7.462-3.946-5.177-1.458-13.842-3.898-15.159-13.958-1.044-7.973 2.369-13.137 5.669-18.132.397-.602.811-1.227 1.233-1.882 13.336-20.413 16.254-29.514 16.356-33.56.079-3.062-.967-4.556-3.34-7.644-3.543-4.61-8.396-10.924-6.155-23.875.974-5.616 3.195-13.574 5.546-22 2.66-9.534 6.681-23.942 6.279-27.599-.278-2.527-1.368-4.536-2.63-6.862-2.92-5.384-6.92-12.758 1.075-24.681.108-.162.224-.319.345-.471 15.882-19.874 40.846-34.544 72.194-42.423 3.751-.944 7.552 1.333 8.495 5.082.942 3.75-1.333 7.553-5.083 8.495-27.823 6.994-50.709 20.253-64.484 37.354-3.101 4.687-2.527 5.744-.235 9.969 1.631 3.006 3.66 6.749 4.239 12.006.65 5.918-2.102 16.375-6.711 32.892-2.154 7.722-4.383 15.708-5.236 20.627-1.192 6.898.56 9.178 3.462 12.955 2.719 3.539 6.443 8.385 6.234 16.531-.226 8.88-5.966 21.472-18.61 40.827-.431.667-.87 1.333-1.294 1.975-2.913 4.408-3.817 5.93-3.469 8.597.037.278.09.423.106.455.502.588 3.297 1.374 4.967 1.845 4.951 1.395 12.434 3.501 16.238 11.261 2.109 4.308 1.818 8.58.731 13.67-.102.477-.253.941-.451 1.386-1.605 3.606-1.362 4.804-1.359 4.814.318.615 3.032 1.782 4.49 2.409 2.302.99 3.899 3.136 4.188 5.625s-.776 4.943-2.791 6.434c-.111.083-.287.206-.521.364-.764.519-2.95 2.004-4.229 4.157-.053.86.06 2.62.862 4.002.1.172.191.349.276.528 1.55 3.285 1.437 7.316.752 12.756-.716 5.682-1.131 10.967 1.608 13.215 2.843 2.333 10.468 2.044 18.313 1.371 36.332-4.828 66.648-13.67 90.105-26.279 3.407-1.828 7.65-.554 9.48 2.852s.554 7.649-2.852 9.48c-13.461 7.235-28.949 13.291-46.329 18.128 1.801 3.552 3.136 8.194 3.618 14.26.107 1.557.066 16.158-.055 25.57h94.345c.817-42.896 20.624-80.056 39.811-116.052 10.707-20.088 20.82-39.061 27.342-58.366 1.237-3.663 5.208-5.63 8.872-4.392 3.663 1.237 5.629 5.209 4.392 8.872zm-70.641-42.621c0 25.959-21.119 47.079-47.078 47.079s-47.078-21.12-47.078-47.079 21.119-47.078 47.078-47.078 47.078 21.119 47.078 47.078zm-14 0c0-18.239-14.839-33.078-33.078-33.078s-33.078 14.839-33.078 33.078 14.839 33.079 33.078 33.079 33.078-14.839 33.078-33.079zm244.362 46.209c0 15.18-12.35 27.529-27.529 27.529-12.761 0-23.52-8.729-26.625-20.529h-42.258c-3.105 11.8-13.863 20.529-26.625 20.529-15.18 0-27.529-12.35-27.529-27.529 0-5.055 1.375-9.792 3.763-13.868l-25.342-25.341h-20.145v6.012c0 3.344-2.365 6.221-5.646 6.868l-12.04 2.374-4.028 9.711 6.838 10.196c1.862 2.777 1.501 6.484-.864 8.849l-18.402 18.402c-2.364 2.364-6.072 2.726-8.848.863l-10.196-6.837-9.712 4.028-2.374 12.039c-.646 3.28-3.523 5.646-6.867 5.646h-26.024c-3.344 0-6.221-2.365-6.867-5.646l-2.374-12.039-9.711-4.028-10.197 6.837c-2.774 1.862-6.483 1.501-8.848-.863l-18.402-18.402c-2.365-2.364-2.727-6.071-.864-8.849l6.838-10.196-4.028-9.711-12.04-2.374c-3.28-.647-5.646-3.524-5.646-6.868v-26.024c0-3.344 2.365-6.221 5.646-6.868l12.039-2.374 4.028-9.711-6.838-10.196c-1.862-2.777-1.501-6.484.864-8.849l18.402-18.402c2.364-2.365 6.073-2.726 8.848-.864l10.197 6.838 9.711-4.028 2.374-12.04c.646-3.281 3.523-5.646 6.867-5.646h6.013v-20.146l-25.342-25.342c-4.075 2.387-8.812 3.763-13.867 3.763-15.18 0-27.529-12.35-27.529-27.529 0-12.761 8.729-23.52 20.529-26.625v-42.256c-11.8-3.105-20.529-13.863-20.529-26.624 0-15.18 12.35-27.53 27.529-27.53s27.529 12.35 27.529 27.53c0 12.761-8.729 23.519-20.529 26.624v42.258c11.8 3.105 20.529 13.863 20.529 26.625 0 5.055-1.375 9.792-3.763 13.868l22.443 22.442 39.208-39.208v-18.23c-11.8-3.105-20.529-13.863-20.529-26.625 0-15.179 12.35-27.529 27.529-27.529s27.529 12.35 27.529 27.529c0 12.761-8.729 23.52-20.529 26.625v21.129c0 1.856-.737 3.637-2.051 4.95l-44.157 44.158v20.146h6.012c3.344 0 6.221 2.365 6.867 5.646l2.374 12.039 9.712 4.029 10.195-6.838c2.777-1.863 6.484-1.501 8.849.864l4.252 4.252 39.209-39.209v-72.495c0-1.856.737-3.637 2.051-4.95l48.478-48.477c-2.387-4.076-3.763-8.813-3.763-13.867 0-15.18 12.35-27.529 27.529-27.529s27.529 12.35 27.529 27.529-12.35 27.529-27.529 27.529c-5.055 0-9.792-1.376-13.868-3.763l-46.427 46.428v65.492h64.415c3.105-11.8 13.863-20.529 26.625-20.529 15.179 0 27.528 12.35 27.528 27.529s-12.35 27.529-27.528 27.529c-12.761 0-23.52-8.729-26.625-20.529h-68.515l-39.209 39.209 4.251 4.251c2.365 2.365 2.727 6.071.864 8.849l-6.838 10.196 4.028 9.711 12.039 2.374c3.281.647 5.646 3.524 5.646 6.868v6.012h20.146l25.341-25.341c-2.387-4.076-3.763-8.813-3.763-13.868 0-15.18 12.35-27.529 27.529-27.529 12.761 0 23.52 8.729 26.625 20.529h42.258c3.105-11.8 13.863-20.529 26.625-20.529 15.18 0 27.529 12.35 27.529 27.529s-12.35 27.529-27.529 27.529c-12.761 0-23.52-8.729-26.625-20.529h-42.258c-3.105 11.8-13.863 20.529-26.625 20.529-5.055 0-9.792-1.375-13.867-3.763l-22.442 22.442 22.442 22.442c4.076-2.387 8.812-3.763 13.867-3.763 12.761 0 23.52 8.729 26.625 20.529h42.258c3.105-11.8 13.863-20.529 26.625-20.529 15.18 0 27.529 12.35 27.529 27.529zm-41.059-92.417c0 7.46 6.069 13.529 13.529 13.529s13.529-6.069 13.529-13.529-6.069-13.529-13.529-13.529-13.529 6.069-13.529 13.529zm-95.507 0c0 7.46 6.069 13.529 13.529 13.529s13.529-6.069 13.529-13.529-6.069-13.529-13.529-13.529-13.529 6.069-13.529 13.529zm45.104-55.261c0 7.46 6.069 13.529 13.529 13.529s13.528-6.069 13.528-13.529-6.068-13.529-13.528-13.529-13.529 6.069-13.529 13.529zm-30.744-142.686c0 7.46 6.069 13.529 13.529 13.529s13.529-6.069 13.529-13.529-6.069-13.529-13.529-13.529-13.529 6.069-13.529 13.529zm-109.027 55.526c7.46 0 13.529-6.069 13.529-13.529s-6.069-13.529-13.529-13.529-13.529 6.069-13.529 13.529 6.069 13.529 13.529 13.529zm-92.417-47.753c7.46 0 13.529-6.069 13.529-13.529s-6.069-13.53-13.529-13.53-13.529 6.069-13.529 13.53 6.069 13.529 13.529 13.529zm13.529 81.978c0-7.46-6.069-13.529-13.529-13.529s-13.529 6.069-13.529 13.529 6.069 13.529 13.529 13.529 13.529-6.069 13.529-13.529zm103.831 147.147-10.069-1.985c-2.297-.453-4.215-2.023-5.112-4.186l-6.901-16.638c-.897-2.165-.653-4.635.652-6.581l5.723-8.533-10.265-10.264-8.532 5.722c-1.945 1.305-4.416 1.55-6.58.652l-16.638-6.901c-2.162-.897-3.733-2.815-4.186-5.112l-1.986-10.069h-14.515l-1.986 10.069c-.452 2.296-2.023 4.215-4.186 5.112l-16.636 6.901c-2.166.896-4.636.653-6.581-.652l-8.533-5.723-10.265 10.264 5.723 8.533c1.306 1.946 1.55 4.417.652 6.581l-6.901 16.638c-.897 2.162-2.815 3.733-5.112 4.186l-10.069 1.985v14.515l10.07 1.985c2.296.453 4.214 2.023 5.111 4.186l6.901 16.638c.897 2.165.653 4.635-.652 6.581l-5.723 8.532 10.265 10.264 8.533-5.722c1.945-1.305 4.415-1.55 6.581-.652l16.636 6.901c2.162.897 3.733 2.815 4.186 5.111l1.986 10.069h14.515l1.986-10.069c.452-2.296 2.023-4.214 4.186-5.111l16.638-6.901c2.164-.898 4.635-.654 6.58.652l8.532 5.722 10.265-10.264-5.723-8.532c-1.306-1.946-1.55-4.417-.652-6.581l6.901-16.638c.897-2.162 2.815-3.733 5.111-4.186l10.07-1.985v-14.515zm96.782 53.466c0-7.46-6.069-13.529-13.529-13.529s-13.529 6.069-13.529 13.529 6.069 13.529 13.529 13.529 13.529-6.069 13.529-13.529zm95.507 0c0-7.46-6.069-13.529-13.529-13.529s-13.529 6.069-13.529 13.529 6.069 13.529 13.529 13.529 13.529-6.069 13.529-13.529zm-42.803-248.824c3.105-11.8 13.863-20.53 26.625-20.53 15.18 0 27.529 12.35 27.529 27.53s-12.35 27.529-27.529 27.529c-12.761 0-23.52-8.729-26.625-20.529h-23.85l-52.253 52.252c-1.366 1.367-3.158 2.05-4.949 2.05s-3.583-.684-4.949-2.05c-2.734-2.734-2.734-7.166 0-9.899l54.303-54.302c1.312-1.312 3.093-2.05 4.949-2.05h26.75zm13.095 7c0 7.46 6.069 13.529 13.529 13.529s13.529-6.069 13.529-13.529-6.069-13.53-13.529-13.53-13.529 6.069-13.529 13.53zm-170.642 30.401v38.718l-30.141 30.141c-2.734 2.734-2.734 7.166 0 9.899 1.366 1.367 3.158 2.05 4.949 2.05s3.583-.684 4.949-2.05l32.191-32.191c1.313-1.313 2.051-3.093 2.051-4.95v-41.618c0-3.866-3.134-7-7-7s-7 3.134-7 7zm96.643 157.898c-3.866 0-7 3.134-7 7s3.134 7 7 7h61.609c3.866 0 7-3.134 7-7s-3.134-7-7-7zm-50.004-61.528-27.024 27.024c-2.734 2.734-2.734 7.166 0 9.899 1.366 1.367 3.158 2.05 4.949 2.05s3.583-.684 4.949-2.05l27.024-27.024c2.734-2.734 2.734-7.166 0-9.899-2.732-2.733-7.166-2.733-9.898 0zm-109.729-79.507c3.866 0 7-3.134 7-7v-66.062c0-3.866-3.135-7-7.001-7s-7 3.134-7 7v66.063c0 3.866 3.135 7 7.001 7z"/></svg>