<svg id="Layer_1" viewBox="0 0 512 512" xmlns="http://www.w3.org/2000/svg" data-name="Layer 1"><path d="m156.524 202.997h-24.601v8.814h-.025c.001 2.73-1.769 5.255-4.517 6.088-2.535.77-7.656 2.743-9.905 4.054-2.475 1.606-5.818 1.324-7.988-.846l-6.236-6.236-17.397 17.397 6.236 6.236-.016.016c1.93 1.928 2.464 4.963 1.114 7.495-1.238 2.318-3.485 7.349-4.145 9.861-.61 2.892-3.177 5.063-6.25 5.063h-8.814v24.601h8.814v.025c2.73-.001 5.255 1.769 6.088 4.517.77 2.536 2.742 7.655 4.054 9.905 1.606 2.475 1.324 5.818-.846 7.988l-6.236 6.236 17.397 17.397 6.236-6.236.016.016c1.928-1.93 4.963-2.464 7.495-1.114 2.318 1.238 7.347 3.485 9.86 4.144 2.892.61 5.064 3.177 5.064 6.25v8.814h24.601v-8.814h.025c-.001-2.73 1.769-5.255 4.517-6.088 2.537-.77 7.654-2.743 9.906-4.055 2.475-1.605 5.818-1.323 7.987.847l6.236 6.236 17.397-17.397-6.236-6.236.016-.016c-1.93-1.928-2.464-4.963-1.114-7.495 1.239-2.32 3.484-7.346 4.145-9.861.61-2.892 3.177-5.063 6.25-5.063h8.814v-24.601h-8.814v-.025c-2.73.001-5.255-1.769-6.088-4.517-.77-2.535-2.743-7.656-4.054-9.904-1.606-2.475-1.324-5.818.846-7.988l6.236-6.236-17.397-17.397-6.236 6.236-.016-.016c-1.928 1.93-4.963 2.464-7.495 1.114-2.321-1.239-7.346-3.484-9.861-4.145-2.892-.61-5.063-3.177-5.063-6.25zm-26.032-12.776h27.464c3.104 0 5.937 1.279 8.004 3.34l.013-.013c3.998 3.998 3.327 8.322 3.327 13.714l3.844 1.594c3.598-3.598 6.396-7.347 12.05-7.347 2.855 0 5.841 1.118 8.008 3.33l.013-.013 19.421 19.421c4.38 4.38 4.456 11.652-.012 16.029l.013.013-4.03 4.03 1.593 3.844c5.405 0 9.678-.674 13.702 3.34l.013-.013c2.053 2.053 3.327 4.891 3.327 8.017v27.464c0 6.252-5.092 11.345-11.344 11.345h-5.697l-1.594 3.844c3.598 3.598 7.347 6.396 7.347 12.05 0 2.855-1.118 5.841-3.33 8.008l.013.013-19.421 19.421c-4.379 4.379-11.652 4.456-16.029-.012l-.013.013-4.03-4.03-3.844 1.593c0 5.35.697 10.378-3.873 14.202-2.009 1.766-4.626 2.84-7.471 2.84h-27.464c-6.253 0-11.345-5.092-11.345-11.344v-5.697l-3.844-1.594c-3.813 3.813-6.398 7.347-12.05 7.347-2.855 0-5.841-1.118-8.008-3.33l-.013.013-19.421-19.421c-4.423-4.423-4.423-11.62 0-16.042l4.029-4.029-1.593-3.844c-5.351 0-10.336.698-14.18-3.846-1.778-2.002-2.862-4.631-2.862-7.498v-27.464c0-6.253 5.092-11.345 11.344-11.345h5.697l1.593-3.844c-3.813-3.813-7.346-6.398-7.346-12.05 0-2.903 1.106-5.81 3.317-8.021l19.42-19.42c4.423-4.423 11.619-4.423 16.042 0l4.029 4.029 3.844-1.593c0-5.393-.671-9.716 3.327-13.714 2.053-2.053 4.891-3.327 8.017-3.327zm30.66 66.091c9.348 9.348 9.348 24.508 0 33.856-15.039 15.04-40.866 4.336-40.866-16.928s25.827-31.967 40.866-16.928zm-16.928-19.787c20.276 0 36.714 16.439 36.714 36.714s-16.439 36.715-36.714 36.715-36.715-16.44-36.715-36.715 16.439-36.714 36.715-36.714zm122.112 136.808-.013-.015c.047.081.07.122.013.015zm-18.255-157.872c4.77 9.853 8.54 21.237 11.273 34.273 3.008 14.341.787 19.429 1.555 32.498.403 6.858 9.86 19.339 17.465 29.375 3.152 4.16 5.955 7.859 7.332 10.062 5.858 9.374-6.148 10.689-13.217 18.346-6.462 7-2.731 15.627-2.791 15.837-.061.214-4.584 3.081-6.153 7.156-2.003 5.202.199 7.47 2.59 10.102-.456 3.48-3.421 5.145-4.193 12.365-1.059 9.896.871 22.587-8.213 27.012-13 6.333-32.574.964-46.276 15.069-14.238 14.656-17.816 35.154-17.595 54.62h-144.039c11.725-24.337 18.754-47.274 19.978-70.515 1.389-26.354-4.662-52.843-19.752-81.864-40.214-77.34-9.379-158.355 82.72-166.361 35.711-3.107 64.893 1.014 86.767 14.646 13.457 8.386 24.283 20.5 32.313 36.891.072.166.151.328.236.485zm168.995-9.425c1.85-5.041 3.045-11.373 3.045-20.147 0-34.05-27.606-61.656-61.656-61.656s-61.656 27.607-61.656 61.656c0 8.773 1.195 15.106 3.045 20.147h-42.231c-18.053-34.279-47.884-50.954-86.046-55.211 3.185-25.614 25.052-42.318 50.8-42.318 3.528 0 6.388-2.86 6.388-6.388l-.121-2.343c-.584-19.298 7.136-37.299 19.891-50.054 33.67-33.671 90.544-23.043 110.009 20.103 1.433 3.179 5.149 4.612 8.339 3.236 1.692-.582 3.496-1.045 5.403-1.375 20.119-3.482 38.884 10.915 40.797 31.031.312 3.299 3.089 5.771 6.338 5.767v.022h15.034c13.404 0 25.594 5.488 34.436 14.33 8.841 8.841 14.33 21.031 14.33 34.435 0 26.808-21.958 48.765-48.766 48.765h-17.376zm-31.727 46.906h-53.77c-4.772 0-7.373 5.846-3.868 9.352.997.997 2.366 1.616 3.868 1.616h53.77c4.772 0 7.373-5.846 3.868-9.352-.997-.997-2.366-1.616-3.868-1.616zm-53.77-12.776h53.77c.586 0 1.166.028 1.738.083 3.383-29.589 20.258-25.57 20.258-54.36 0-26.997-21.884-48.88-48.88-48.88s-48.88 21.884-48.88 48.88c0 28.789 16.875 24.771 20.258 54.36.572-.054 1.152-.083 1.737-.083zm10.488 36.519v6.597c0 2.322 1.602 4.486 3.825 4.486h25.143c2.222 0 3.825-2.163 3.825-4.486v-6.597zm45.569-.143c0 7.234.703 12.984-4.747 18.786-3.023 3.218-7.218 5.216-11.854 5.216h-25.143c-9.299 0-16.601-7.966-16.601-17.262v-6.74c-9.033-1.138-15.972-8.884-15.972-18.116 0-4.444 1.603-8.526 4.257-11.697-.643-14.597-5.107-20.648-9.468-26.558-.334-.453-.668-.905-1-1.359h-43.632c3.393 8.551 6.184 17.977 8.354 28.328 3.429 16.349 1.009 20.81 1.805 34.345.266 4.535 18.233 25.98 22.901 33.449 14.139 22.625-7.959 26.455-14.664 33.716-1.6 1.733 1.8 4.764.103 10.697-.817 2.858-2.947 4.924-5.03 6.936 3.431 5.008 1.833 11.326-.817 16.187-1.948 3.573-1.74 6.429-1.935 11.005-.501 11.739-1.014 23.74-14.875 30.493-15.217 7.413-33.286 2.749-42.733 12.474-13.066 13.45-14.7 34-13.786 51.801.187 3.633-2.724 6.696-6.363 6.696v.017h-160.942c-4.556 0-8.238-4.903-5.377-9.838 13.545-26.066 21.687-50.051 22.954-74.101 1.267-24.041-4.357-48.406-18.355-75.326-44.572-85.722-7.907-176.209 92.95-184.976 10.948-.953 21.356-1.254 31.208-.846 3.422-29.955 27.44-51.127 57.002-53.841.926-43.821 36.746-78.98 80.7-78.98 30.026 0 57.165 16.586 71.13 42.554 25.791-5.934 51.45 10.486 57.135 36.131h9.611c33.86 0 61.542 27.68 61.542 61.541s-27.681 61.541-61.542 61.541h-24.633c-.332.454-.666.906-1 1.359-4.361 5.91-8.825 11.961-9.468 26.558 2.655 3.171 4.257 7.254 4.257 11.697 0 9.232-6.939 16.978-15.972 18.117z" fill-rule="evenodd"/></svg>