<svg id="Layer_1" enable-background="new 0 0 512 512" viewBox="0 0 512 512" xmlns="http://www.w3.org/2000/svg"><path d="m255.694 81.878c-2.122 0-4.156.843-5.657 2.343-1.5 1.501-2.343 3.535-2.343 5.657l.001 54.273c0 3.29 2.015 6.245 5.078 7.447 3.064 1.201 6.55.407 8.787-2.007 4.954-5.341 11.69-8.282 18.968-8.282 14.263 0 25.867 11.604 25.867 25.867s-11.604 25.867-25.867 25.867c-7.277 0-14.013-2.941-18.968-8.283-2.238-2.413-5.724-3.208-8.787-2.007-3.063 1.202-5.078 4.157-5.078 7.447v46.275h-30.98c2.312-5.261 3.548-10.994 3.548-16.833 0-23.086-18.782-41.867-41.867-41.867s-41.867 18.781-41.867 41.867c0 5.839 1.236 11.572 3.548 16.833h-38.982c-4.418 0-8 3.582-8 8 0 28.176 7.346 55.981 21.243 80.412 13.888 24.413 34.025 44.941 58.235 59.367 7.352 4.38 11.401 11.504 11.401 20.059v37.696c0 13.356 9 24.641 21.252 28.131v1.505c0 21.699 17.653 39.354 39.352 39.354h22.235c21.699 0 39.352-17.654 39.352-39.354v-1.505c12.252-3.489 21.252-14.775 21.252-28.131v-37.696c0-8.555 4.049-15.679 11.4-20.06 23.774-14.164 43.685-34.3 57.581-58.228 14.326-24.668 21.898-52.867 21.898-81.551-.002-89.655-72.944-162.596-162.602-162.596zm24.834 127.166c23.085 0 41.867-18.781 41.867-41.867s-18.781-41.867-41.867-41.867c-5.839 0-11.572 1.235-16.833 3.548v-30.764c74.481 4.025 134.352 63.904 138.378 138.383h-46.052c-3.291 0-6.245 2.015-7.447 5.078s-.406 6.55 2.007 8.787c5.341 4.954 8.283 11.69 8.283 18.968 0 14.264-11.604 25.867-25.867 25.867s-25.867-11.604-25.867-25.867c0-7.277 2.941-14.014 8.282-18.968 2.413-2.237 3.209-5.724 2.007-8.787s-4.157-5.078-7.447-5.078h-46.275v-30.98c5.259 2.312 10.991 3.547 16.831 3.547zm-99.767 161.467c-41.905-24.969-68.763-69.665-71.446-118.034h46.054c3.291 0 6.245-2.015 7.447-5.078 1.202-3.062.406-6.55-2.007-8.787-5.341-4.954-8.282-11.69-8.282-18.968 0-14.264 11.604-25.867 25.867-25.867s25.867 11.604 25.867 25.867c0 7.277-2.941 14.014-8.282 18.968-2.413 2.237-3.209 5.724-2.007 8.787s4.157 5.078 7.447 5.078h46.275v30.98c-5.262-2.312-10.994-3.548-16.833-3.548-23.085 0-41.867 18.781-41.867 41.867s18.781 41.867 41.867 41.867c5.839 0 11.572-1.236 16.833-3.548v58.388h-47.722v-14.169c0-14.209-7.002-26.53-19.211-33.803zm86.05 124.489h-22.235c-12.876 0-23.352-10.477-23.352-23.354v-.384h68.939v.384c0 12.877-10.475 23.354-23.352 23.354zm31.352-39.737h-84.939c-7.307 0-13.252-5.944-13.252-13.252v-7.527h111.443v7.527c0 7.307-5.945 13.252-13.252 13.252zm32.463-84.752c-12.208 7.274-19.21 19.595-19.21 33.804v14.169h-47.721v-73.682c0-3.29-2.015-6.245-5.078-7.447-3.063-1.2-6.55-.406-8.787 2.007-4.954 5.341-11.69 8.282-18.968 8.282-14.263 0-25.867-11.604-25.867-25.867s11.604-25.867 25.867-25.867c7.277 0 14.013 2.941 18.968 8.283 2.238 2.413 5.725 3.209 8.787 2.007 3.063-1.202 5.078-4.157 5.078-7.447v-46.275h30.981c-2.312 5.261-3.548 10.994-3.548 16.833 0 23.086 18.781 41.867 41.867 41.867s41.867-18.781 41.867-41.867c0-5.839-1.236-11.572-3.548-16.833h30.741c-2.684 48.368-29.525 93.064-71.429 118.033zm86.285-220.338c-2.209-3.826-.898-8.719 2.928-10.928l34.722-20.047c3.826-2.211 8.719-.898 10.928 2.928s.898 8.719-2.928 10.928l-34.722 20.047c-1.26.728-2.635 1.073-3.992 1.073-2.765 0-5.454-1.435-6.936-4.001zm81.647 93.243c0 4.418-3.582 8-8 8l-40.093.001c-4.418 0-8-3.582-8-8s3.582-8 8-8l40.093-.001c4.418 0 7.999 3.582 8 8zm-33.068 120.962c-1.482 2.566-4.171 4.001-6.936 4.001-1.357 0-2.732-.346-3.992-1.073l-34.722-20.047c-3.826-2.209-5.137-7.102-2.928-10.928s7.102-5.137 10.928-2.928l34.722 20.047c3.826 2.209 5.136 7.102 2.928 10.928zm-217.796-315.284v-40.093c0-4.418 3.582-8 8-8s8 3.582 8 8v40.093c0 4.418-3.582 8-8 8s-8-3.582-8-8zm-186.158 202.158h-40.094c-4.418 0-8-3.582-8-8s3.582-8 8-8h40.094c4.418 0 8 3.582 8 8s-3.582 8-8 8zm32.941 85.079c2.209 3.826.898 8.719-2.928 10.928l-34.722 20.047c-1.26.728-2.635 1.073-3.992 1.073-2.765 0-5.454-1.435-6.936-4.001-2.209-3.826-.898-8.719 2.928-10.928l34.722-20.047c3.826-2.211 8.718-.898 10.928 2.928zm251.367-265.225 20.047-34.722c2.209-3.826 7.102-5.137 10.928-2.928s5.137 7.102 2.928 10.928l-20.047 34.722c-1.482 2.566-4.171 4.001-6.936 4.001-1.357 0-2.732-.346-3.992-1.073-3.826-2.209-5.137-7.101-2.928-10.928zm-324.402 100.494h54.276c3.291 0 6.245-2.015 7.447-5.078 1.202-3.062.406-6.55-2.007-8.787-5.341-4.954-8.282-11.69-8.282-18.968 0-14.264 11.604-25.867 25.867-25.867s25.867 11.604 25.867 25.867c0 7.277-2.941 14.014-8.282 18.968-2.413 2.237-3.209 5.724-2.007 8.787s4.157 5.078 7.447 5.078h54.275c4.418 0 8-3.582 8-8v-38.98c5.262 2.312 10.994 3.548 16.833 3.548 23.085 0 41.867-18.781 41.867-41.867s-18.781-41.867-41.867-41.867c-5.84 0-11.572 1.235-16.833 3.548v-38.982c0-4.418-3.582-8-8-8-89.658 0-162.6 72.941-162.6 162.6-.001 4.418 3.581 8 7.999 8zm146.601-154.384.001 46.059c0 3.291 2.015 6.245 5.078 7.447 3.064 1.202 6.55.406 8.787-2.007 4.954-5.341 11.69-8.282 18.968-8.282 14.263 0 25.867 11.604 25.867 25.867s-11.604 25.867-25.867 25.867c-7.277 0-14.013-2.941-18.968-8.283-2.238-2.413-5.724-3.207-8.787-2.007-3.063 1.202-5.078 4.157-5.078 7.447v46.276h-30.981c2.312-5.261 3.548-10.994 3.548-16.833 0-23.086-18.781-41.867-41.867-41.867-23.085 0-41.867 18.781-41.867 41.867 0 5.839 1.236 11.572 3.548 16.833h-30.767c4.025-74.481 63.904-134.36 138.385-138.384z"/></svg>