<svg id="Layer_1" enable-background="new 0 0 512 512" viewBox="0 0 512 512" xmlns="http://www.w3.org/2000/svg"><path d="m334.825 130.111c-50.214 0-91.065 40.852-91.065 91.065s40.852 91.065 91.065 91.065 91.065-40.852 91.065-91.065-40.851-91.065-91.065-91.065zm0 168.131c-42.494 0-77.065-34.571-77.065-77.065s34.571-77.065 77.065-77.065 77.065 34.571 77.065 77.065-34.571 77.065-77.065 77.065zm35.603-124.732-59.082 102.333c-1.297 2.245-3.65 3.501-6.069 3.501-1.188 0-2.391-.303-3.493-.938-3.348-1.934-4.495-6.215-2.562-9.562l59.082-102.333c1.934-3.348 6.215-4.492 9.562-2.562 3.347 1.932 4.495 6.214 2.562 9.561zm-2.067 46.073c-12.139 0-22.014 11.82-22.014 26.349s9.875 26.349 22.014 26.349c12.138 0 22.013-11.82 22.013-26.349s-9.875-26.349-22.013-26.349zm0 38.698c-3.79 0-8.014-5.071-8.014-12.349s4.224-12.349 8.014-12.349 8.013 5.071 8.013 12.349-4.223 12.349-8.013 12.349zm-45.059-61.86c0-14.528-9.875-26.349-22.013-26.349s-22.013 11.82-22.013 26.349 9.875 26.348 22.013 26.348 22.013-11.819 22.013-26.348zm-30.025 0c0-7.277 4.223-12.349 8.013-12.349s8.013 5.071 8.013 12.349c0 7.276-4.223 12.348-8.013 12.348s-8.013-5.071-8.013-12.348zm207.85 138.394c-3.532-10.428-11.968-18-23.754-21.323-12.681-3.577-29.175-2.437-49.021 3.386l-90.349 26.506c-.379-.772-.787-1.536-1.222-2.289-5.045-8.739-13.161-14.982-22.853-17.579l-64.188-17.199c-46.843-32.823-71.943-23.394-108.858-5.345-17.683 8.647-35.219 16.993-51.792 24.826l-3.478-8.352c-4.614-11.084-17.391-16.354-28.482-11.753l-34.671 14.397c-5.403 2.243-9.6 6.437-11.815 11.807-2.216 5.371-2.198 11.303.051 16.705l58.713 140.981c3.481 8.364 11.609 13.417 20.154 13.417 2.78 0 5.605-.535 8.328-1.665l34.672-14.397c5.403-2.244 9.599-6.438 11.814-11.81 2.216-5.371 2.197-11.303-.052-16.702l-3.933-9.444 22.599-10.988c8.255-4.013 16.554-4.718 25.365-2.16l72.118 20.939c5.311 1.542 10.799 2.201 16.368 2.201 19.169 0 39.269-7.822 56.165-14.397 1.487-.579 2.947-1.147 4.375-1.697l135.349-52.158c21.913-8.444 35.448-35.091 28.397-55.907zm-369.692 134.975c-.789 1.912-2.296 3.41-4.242 4.219l-34.671 14.397c-3.971 1.645-8.539-.238-10.19-4.204l-58.713-140.982c-.81-1.946-.821-4.071-.033-5.982.789-1.912 2.295-3.409 4.242-4.218l34.671-14.398c.975-.404 1.984-.596 2.979-.596 3.057 0 5.965 1.809 7.211 4.801l58.712 140.982c.81 1.945.822 4.069.034 5.981zm336.262-92.132-135.35 52.158c-1.441.557-2.916 1.13-4.418 1.715-19.833 7.719-44.513 17.33-63.551 11.798l-72.118-20.939c-12.128-3.52-24.034-2.508-35.391 3.016l-21.869 10.633-40.522-97.302c16.793-7.936 34.587-16.402 52.555-25.187 34.502-16.871 54.425-24.312 95.645 4.917.677.48 1.435.837 2.237 1.052l65.391 17.521c6.079 1.629 11.176 5.555 14.352 11.056 3.176 5.5 4.027 11.878 2.398 17.957-1.629 6.078-5.555 11.175-11.056 14.351s-11.878 4.027-17.957 2.398l-86.901-23.285c-3.729-.999-7.573 1.214-8.573 4.95-1 3.734 1.216 7.572 4.95 8.573l86.9 23.285c9.689 2.596 19.84 1.249 28.581-3.797 8.739-5.046 14.982-13.161 17.579-22.853 1.133-4.23 1.515-8.549 1.165-12.799l90.549-26.564c29.915-8.776 50.692-5.415 55.574 8.995 4.624 13.651-5.367 32.647-20.17 38.351zm-185.57-321.204 23.842 19.649-7.738 29.91c-.721 2.785.335 5.727 2.662 7.417 2.327 1.689 5.449 1.783 7.876.24l26.056-16.603 26.056 16.603c1.15.732 2.457 1.097 3.762 1.097 1.446 0 2.891-.448 4.114-1.337 2.327-1.69 3.383-4.632 2.662-7.417l-7.738-29.91 23.842-19.649c2.219-1.829 3.094-4.829 2.205-7.564s-3.359-4.648-6.23-4.824l-30.838-1.883-11.321-28.747c-1.055-2.678-3.638-4.436-6.514-4.436s-5.459 1.759-6.513 4.436l-11.321 28.747-30.838 1.883c-2.871.176-5.342 2.089-6.23 4.824s-.014 5.735 2.204 7.564zm40.169-.57c2.716-.166 5.09-1.891 6.086-4.423l6.442-16.357 6.442 16.357c.996 2.532 3.37 4.257 6.086 4.423l17.548 1.071-13.567 11.181c-2.1 1.731-3.006 4.521-2.324 7.156l4.403 17.02-14.826-9.447c-1.147-.731-2.454-1.097-3.762-1.097s-2.614.365-3.762 1.097l-14.826 9.447 4.403-17.02c.682-2.635-.225-5.425-2.324-7.156l-13.567-11.181zm-153.075 39.129 23.842 19.649-7.738 29.91c-.721 2.785.335 5.727 2.662 7.417 1.224.889 2.668 1.337 4.114 1.337 1.305 0 2.611-.364 3.762-1.097l26.056-16.603 26.055 16.603c2.425 1.544 5.548 1.449 7.876-.24 2.327-1.69 3.383-4.632 2.663-7.416l-7.738-29.91 23.842-19.65c2.219-1.829 3.094-4.829 2.205-7.564s-3.36-4.648-6.23-4.824l-30.839-1.883-11.319-28.746c-1.055-2.677-3.638-4.436-6.514-4.436s-5.459 1.759-6.513 4.435l-11.321 28.747-30.838 1.883c-2.871.176-5.342 2.089-6.23 4.824s-.016 5.735 2.203 7.564zm40.169-.569c2.716-.166 5.09-1.891 6.086-4.423l6.442-16.356 6.44 16.356c.997 2.532 3.371 4.257 6.087 4.423l17.549 1.071-13.567 11.182c-2.1 1.729-3.006 4.521-2.325 7.154l4.403 17.021-14.825-9.447c-2.295-1.463-5.229-1.464-7.523 0l-14.826 9.447 4.403-17.02c.682-2.635-.225-5.425-2.324-7.155l-13.567-11.182zm185.645.569 23.842 19.649-7.738 29.91c-.721 2.785.335 5.727 2.662 7.417 1.224.889 2.668 1.337 4.114 1.337 1.305 0 2.612-.364 3.762-1.097l26.055-16.603 26.056 16.603c2.426 1.544 5.548 1.449 7.876-.24 2.327-1.69 3.383-4.632 2.663-7.416l-7.738-29.91 23.841-19.65c2.22-1.829 3.094-4.829 2.205-7.564s-3.36-4.648-6.23-4.824l-30.838-1.883-11.321-28.747c-1.054-2.676-3.637-4.435-6.513-4.435s-5.459 1.759-6.514 4.436l-11.319 28.746-30.838 1.883c-2.871.176-5.342 2.089-6.23 4.824s-.016 5.735 2.203 7.564zm40.169-.569c2.716-.166 5.09-1.891 6.087-4.423l6.44-16.356 6.442 16.356c.996 2.532 3.37 4.257 6.086 4.423l17.548 1.071-13.566 11.182c-2.1 1.73-3.006 4.521-2.325 7.154l4.404 17.021-14.827-9.447c-1.147-.731-2.454-1.097-3.762-1.097s-2.614.365-3.762 1.097l-14.825 9.446 4.403-17.019c.682-2.635-.225-5.425-2.324-7.155l-13.567-11.182z"/></svg>