<svg id="Layer_1" enable-background="new 0 0 66 66" height="512" viewBox="0 0 66 66" width="512" xmlns="http://www.w3.org/2000/svg"><g><path d="m7.7 21.98h14.47c.54 0 .97-.43.97-.97s-.43-.97-.97-.97h-14.47c-.54 0-.97.43-.97.97 0 .53.43.97.97.97z"/><path d="m16.82 26.57c.54 0 .97-.43.97-.97s-.43-.97-.97-.97h-1.53c-.54 0-.97.43-.97.97s.43.97.97.97z"/><path d="m12.97 25.6c0-.54-.43-.97-.97-.97h-4.3c-.54 0-.97.43-.97.97s.43.97.97.97h4.3c.53 0 .97-.43.97-.97z"/><path d="m60.15 1h-54.3c-2.67 0-4.85 2.18-4.85 4.85v54.3c0 2.67 2.18 4.85 4.85 4.85h54.3c2.67 0 4.85-2.18 4.85-4.85v-54.3c0-2.67-2.18-4.85-4.85-4.85zm-54.3 1.94h54.3c1.6 0 2.91 1.3 2.91 2.91v7.86h-60.12v-7.86c0-1.6 1.31-2.91 2.91-2.91zm54.3 60.12h-54.3c-1.6 0-2.91-1.3-2.91-2.91v-44.5h60.12v44.5c0 1.6-1.31 2.91-2.91 2.91z"/><path d="m7.95 9.3h2.05c.54 0 .97-.43.97-.97s-.43-.97-.97-.97h-2.05c-.54 0-.97.43-.97.97 0 .53.43.97.97.97z"/><path d="m13.55 9.3h2.05c.54 0 .97-.43.97-.97s-.43-.97-.97-.97h-2.05c-.54 0-.97.43-.97.97 0 .53.44.97.97.97z"/><path d="m19.16 9.3h2.05c.54 0 .97-.43.97-.97s-.43-.97-.97-.97h-2.05c-.54 0-.97.43-.97.97 0 .53.43.97.97.97z"/><path d="m34.93 9.3h22.96c.54 0 .97-.43.97-.97s-.43-.97-.97-.97h-22.96c-.54 0-.97.43-.97.97 0 .53.43.97.97.97z"/><path d="m13.08 32.24c-.17.17-.25.38-.25.62v10.28c0 .24.08.45.25.62s.37.25.62.25c.24 0 .45-.08.62-.25s.26-.37.26-.62v-4.37h5.06c.23 0 .43-.08.59-.23.16-.16.24-.35.24-.58s-.08-.43-.24-.59-.36-.24-.59-.24h-5.06v-3.49h5.65c.23 0 .43-.08.59-.23.16-.16.24-.35.24-.58s-.08-.43-.24-.59-.36-.24-.59-.24h-6.53c-.25-.03-.45.06-.62.24z"/><path d="m23.05 43.14c0 .24.08.45.25.62s.37.25.62.25c.24 0 .45-.08.62-.25s.26-.37.26-.62v-3.79h3.37c.74 0 1.29.18 1.65.53.36.36.6.77.69 1.22.1.47.15.98.15 1.53v.5c0 .25.08.46.24.63.16.16.38.24.64.24.24 0 .45-.08.62-.25s.25-.37.25-.62v-.77c0-.77-.15-1.57-.45-2.37-.27-.72-.75-1.21-1.43-1.47.59-.26 1.06-.64 1.4-1.13.39-.57.58-1.21.58-1.9 0-1.05-.4-1.91-1.18-2.56-.78-.64-1.96-.97-3.5-.97h-3.91c-.24 0-.45.09-.62.26s-.25.38-.25.62zm1.75-9.5h2.85c1.15 0 1.96.17 2.43.52.46.34.69.82.69 1.46 0 .66-.26 1.16-.8 1.52-.54.37-1.3.55-2.23.55h-2.94z"/><path d="m35.88 43.93h6.74c.23 0 .43-.08.59-.23.16-.16.24-.35.24-.58s-.08-.43-.24-.59-.36-.24-.59-.24h-5.85v-3.51h5.25c.23 0 .43-.08.59-.23.16-.16.25-.35.25-.58s-.08-.43-.24-.59-.36-.24-.59-.24h-5.25v-3.49h5.85c.23 0 .43-.08.59-.23.16-.16.24-.35.24-.58s-.08-.43-.24-.59-.36-.24-.59-.24h-6.74c-.24 0-.45.09-.62.26s-.25.38-.25.62v10.2c0 .24.08.45.25.62.16.13.36.22.61.22z"/><path d="m46.6 43.93h6.74c.23 0 .43-.08.59-.23.16-.16.24-.35.24-.58s-.08-.43-.24-.59-.36-.24-.59-.24h-5.85v-3.51h5.25c.23 0 .43-.08.59-.23.16-.16.25-.35.25-.58s-.08-.43-.24-.59-.36-.24-.59-.24h-5.25v-3.49h5.85c.23 0 .43-.08.59-.23.16-.16.24-.35.24-.58s-.08-.43-.24-.59-.36-.24-.59-.24h-6.75c-.24 0-.45.09-.62.26s-.25.38-.25.62v10.2c0 .24.08.45.25.62.17.13.37.22.62.22z"/><path d="m53.78 48.8h-23.21c-.54 0-.97.43-.97.97s.43.97.97.97h23.21c.54 0 .97-.43.97-.97s-.44-.97-.97-.97z"/><path d="m12.26 49.77c0 .54.43.97.97.97h9.55c.54 0 .97-.43.97-.97s-.43-.97-.97-.97h-9.55c-.54 0-.97.43-.97.97z"/><path d="m53.78 54.76h-9.6c-.54 0-.97.43-.97.97s.43.97.97.97h9.6c.54 0 .97-.43.97-.97 0-.53-.44-.97-.97-.97z"/><path d="m36.38 54.76h-23.15c-.54 0-.97.43-.97.97s.43.97.97.97h23.16c.54 0 .97-.43.97-.97-.01-.53-.44-.97-.98-.97z"/></g></svg>