<?xml version="1.0" encoding="UTF-8"?>
<svg id="Layer_1" xmlns="http://www.w3.org/2000/svg" version="1.1" viewBox="0 0 64 64">
  <!-- Generator: Adobe Illustrator 29.8.5, SVG Export Plug-In . SVG Version: 2.1.1 Build 2)  -->
  <defs>
    <style>
      .st0 {
        fill: #fff;
      }
    </style>
  </defs>
  <path class="st0" d="M61,38.2h-2V7.9c0-2-1.6-3.6-3.6-3.6H8.6c-2,0-3.6,1.6-3.6,3.6v30.3h-2c-.6,0-1,.4-1,1v4.2c0,2.6,2.1,4.8,4.8,4.8h3.2c-.1,1.8-.2,3.5-.3,5.1,0,.1,0,.3,0,.4,0,3.4,2.8,6.1,6.1,6.1s3.4-.7,4.6-2l7.6-8.3h8l7.6,8.3c1.2,1.3,2.8,2,4.6,2,3.4,0,6.2-2.8,6.2-6.1s0-.1,0-.2h-1c0,0,1-.1,1-.1,0-1.6-.2-3.4-.3-5.1h3.4c2.6,0,4.8-2.1,4.8-4.8v-4.2c0-.6-.4-1-1-1h0ZM6.9,7.9c0-.9.7-1.6,1.6-1.6h46.8c.9,0,1.6.7,1.6,1.6v30.3h-4.5s0,0,0-.1c0-.1,0-.3-.1-.4,0-.2-.1-.3-.2-.5,0-.1-.1-.2-.2-.4,0-.2-.1-.3-.2-.4,0-.1-.1-.2-.2-.3,0-.1-.2-.3-.3-.4,0-.1-.1-.2-.2-.3,0-.1-.2-.2-.3-.4,0,0-.2-.2-.2-.3,0-.1-.2-.2-.3-.3,0,0-.2-.2-.3-.3-.1-.1-.2-.2-.3-.3,0,0-.2-.2-.3-.2-.1,0-.2-.2-.3-.3,0,0-.2-.1-.3-.2-.1,0-.2-.2-.3-.2-.1,0-.2-.1-.3-.2-.1,0-.2-.1-.4-.2-.1,0-.2-.1-.3-.2-.1,0-.2-.1-.4-.2-.1,0-.2,0-.3-.1-.1,0-.3,0-.4-.1-.1,0-.2,0-.3-.1-.1,0-.3,0-.4-.1-.1,0-.2,0-.3,0-.1,0-.3,0-.4,0,0,0-.2,0-.3,0-.2,0-.3,0-.5,0,0,0-.2,0-.2,0-.2,0-.5,0-.7,0-3.6,0-6.4,2-7.3,2.7h-8.1c-.9-.7-3.7-2.7-7.3-2.7s-.5,0-.8,0c0,0-.2,0-.3,0-.2,0-.4,0-.5,0-.1,0-.2,0-.3,0-.2,0-.3,0-.5.1-.1,0-.2,0-.3,0-.1,0-.3,0-.4.1-.1,0-.2,0-.3.1-.1,0-.3.1-.4.2-.1,0-.2,0-.3.2-.1,0-.3.1-.4.2-.1,0-.2.1-.3.2-.1,0-.2.1-.4.2-.1,0-.2.1-.3.2-.1,0-.2.2-.3.2,0,0-.2.2-.3.2-.1,0-.2.2-.3.3,0,0-.2.2-.3.2-.1,0-.2.2-.3.3,0,0-.2.2-.2.3,0,.1-.2.2-.3.3,0,0-.2.2-.2.3,0,.1-.2.2-.3.4,0,0-.1.2-.2.3,0,.1-.2.3-.2.4,0,.1-.1.2-.2.3,0,.1-.1.3-.2.4,0,.1,0,.2-.1.3,0,.2-.1.3-.2.5,0,0,0,.2-.1.3,0,0,0,0,0,0h-4.3V7.9ZM4,43.4v-3.2h6.7c0,.2,0,.4,0,.7,0,0,0,.1,0,.2,0,.2,0,.4,0,.6,0,0,0,.2,0,.3,0,.2,0,.4,0,.6,0,0,0,.2,0,.3,0,.2,0,.4,0,.6,0,.1,0,.2,0,.3,0,.2,0,.4,0,.6,0,0,0,.2,0,.3,0,.2,0,.5,0,.7,0,0,0,0,0,.1,0,.3,0,.5,0,.7h-3.3c-1.5,0-2.8-1.2-2.8-2.8ZM48,57.7c-1.2,0-2.3-.5-3.1-1.4l-7.9-8.6c-.2-.2-.5-.3-.7-.3h-8.9c-.3,0-.6.1-.7.3l-7.9,8.6c-.8.9-1.9,1.4-3.1,1.4-2.3,0-4.1-1.9-4.1-4.1s0-.1,0-.2c0-1.9.2-4.1.4-6.2.2-2.9.4-5.3.7-6.8,0-.3.1-.7.2-1,1.2-4.5,4.8-6.1,7.6-6.1s6.2,2.4,6.2,2.5c.2.2.4.3.7.3h8.9c.3,0,.5,0,.7-.3,0,0,2.7-2.5,6.2-2.5s.7,0,1.1,0c1,.1,2.1.5,3.1,1.2,1.1.7,2.2,1.8,2.9,3.3.2.5.4,1,.6,1.6h0c0,.3.2.6.2,1,.2,1.4.5,3.6.7,6.8h0c.1,2.1.3,4.3.4,6.1,0,0,0,.1,0,.2h0c0,2.4-1.9,4.2-4.2,4.2h0ZM60,43.4c0,1.5-1.2,2.8-2.8,2.8h-3.5s0,0,0-.1c0-.1,0-.3,0-.4,0-.2,0-.4,0-.6,0-.2,0-.3,0-.5,0-.2,0-.3,0-.5,0-.2,0-.3,0-.5,0-.1,0-.3,0-.4,0-.1,0-.3,0-.4,0-.1,0-.2,0-.3,0-.1,0-.3,0-.4,0-.1,0-.2,0-.3,0-.1,0-.3,0-.4,0,0,0-.2,0-.3,0-.2,0-.4,0-.6,0,0,0-.2,0-.2h6.9v3.2h0Z"/>
  <path class="st0" d="M23.7,40.8h-2.4v-2.4c0-.6-.4-1-1-1s-1,.4-1,1v2.4h-2.4c-.6,0-1,.4-1,1s.4,1,1,1h2.4v2.4c0,.6.4,1,1,1s1-.4,1-1v-2.4h2.4c.6,0,1-.4,1-1s-.4-1-1-1Z"/>
  <path class="st0" d="M43.7,37.1c-.6,0-1,.4-1,1v1.5c0,.6.4,1,1,1s1-.4,1-1v-1.5c0-.6-.4-1-1-1Z"/>
  <path class="st0" d="M43.7,42.7c-.6,0-1,.4-1,1v1.5c0,.6.4,1,1,1s1-.4,1-1v-1.5c0-.6-.4-1-1-1Z"/>
  <path class="st0" d="M47.2,40.6h-1.5c-.6,0-1,.4-1,1s.4,1,1,1h1.5c.6,0,1-.4,1-1s-.4-1-1-1Z"/>
  <path class="st0" d="M41.6,40.6h-1.5c-.6,0-1,.4-1,1s.4,1,1,1h1.5c.6,0,1-.4,1-1s-.4-1-1-1Z"/>
  <path class="st0" d="M29.6,44h-.7c-.6,0-1,.4-1,1s.4,1,1,1h.7c.6,0,1-.4,1-1s-.4-1-1-1Z"/>
  <path class="st0" d="M35.1,44h-.7c-.6,0-1,.4-1,1s.4,1,1,1h.7c.6,0,1-.4,1-1s-.4-1-1-1Z"/>
  <path class="st0" d="M54,22.1l-1.5-1.4v-4.9l.6-.3c.3-.2.5-.5.5-.8s-.2-.7-.6-.8l-12.2-5.9c-.3-.1-.8-.2-1.1,0l-12.3,5.9c-.3.2-.5.5-.5.8s.2.7.6.8l3.3,1.6v4.1c0,.5.3,1,.8,1.2l6.2,3c.8.4,1.7.6,2.5.6s1.7-.2,2.5-.6l6.2-3c.5-.2.8-.7.8-1.2v-4.1l1.2-.6v4.1l-1.5,1.4c-.2.1-.2.3-.2.6v3.2c0,.4.3.8.8.8h3.4c.4,0,.8-.3.8-.8v-3.2c0-.2,0-.4-.2-.6ZM48.2,21.2l-6.1,2.9c-1.2.6-2.5.6-3.7,0l-6.1-2.9v-3.2l7.4,3.5c.2,0,.4.1.6.1s.4,0,.5-.1l7.4-3.5v3.2ZM40.3,14c-.4,0-.8.3-.8.7,0,.4.3.8.7.8l8.5.4-8.4,4.1-11-5.2,11-5.2,10.5,5-10.4-.5ZM52.7,25h-1.9v-2.1l.9-.9.9.9v2.1Z"/>
  <path class="st0" d="M16,23.6h-5.2c-.6,0-1.2.5-1.2,1.2v2.8c0,.6.5,1.2,1.2,1.2h5.2c.6,0,1.2-.5,1.2-1.2v-2.8c0-.6-.5-1.2-1.2-1.2ZM15.6,27.2h-4.4v-2h4.4v2Z"/>
  <path class="st0" d="M31.4,30l-2.2-2.2.2-.2c.3-.3.4-.7.2-1.1-.1-.4-.5-.7-.9-.7l-2-.2v-.7c0-.6-.5-1.2-1.1-1.2h-5.2c-.6,0-1.2.5-1.2,1.2v2.8c0,.6.5,1.2,1.2,1.2h3.8l.2,1.3c0,.4.3.7.7.9.4.1.8,0,1.1-.2l.2-.2,2.2,2.2c.2.2.5.3.8.3s.6-.1.8-.3l1-1c.5-.5.5-1.2,0-1.7ZM25.2,25.2h0c-.3,0-.7,0-.9.3-.2.2-.3.6-.3.9v.7c.1,0-3.1,0-3.1,0v-2h4.4ZM29.5,31.3l-2.5-2.5c-.1-.2-.3-.2-.5-.2s-.4,0-.5.2h0c0,0-.3-1.9-.3-1.9l2,.3h-.1c-.3.4-.3.9,0,1.2l2.5,2.5-.5.5Z"/>
  <path class="st0" d="M11.5,9.6c0-.4.3-.8.8-.8h11.8c.4,0,.8.3.8.8s-.3.8-.8.8h-11.8c-.4,0-.8-.3-.8-.8Z"/>
  <path class="st0" d="M11.5,20.1c0-.4.3-.8.8-.8h11.8c.4,0,.8.3.8.8s-.3.8-.8.8h-11.8c-.4,0-.8-.3-.8-.8Z"/>
  <path class="st0" d="M11.5,16.6c0-.4.3-.8.8-.8h11.8c.4,0,.8.3.8.8s-.3.8-.8.8h-11.8c-.4,0-.8-.3-.8-.8Z"/>
  <path class="st0" d="M11.5,13.1c0-.4.3-.8.8-.8h11.8c.4,0,.8.3.8.8s-.3.8-.8.8h-11.8c-.4,0-.8-.3-.8-.8Z"/>
</svg>