<svg clip-rule="evenodd" fill-rule="evenodd" stroke-linejoin="round" stroke-miterlimit="2" viewBox="0 0 510 510" xmlns="http://www.w3.org/2000/svg"><path d="m188.054 355.752h-132.16c-22.349 0-40.463-18.114-40.463-40.462v-266.909c0-22.349 18.114-40.464 40.463-40.464h407.072c17.451 0 31.603 14.15 31.603 31.609v275.764c0 22.347-18.114 40.462-40.464 40.462h-132.331c1.864 34.646 9.658 63.949 17.775 86.274h39.536c16.459 0 29.952 13.482 29.952 29.987s-13.493 29.987-29.952 29.987h-245.743c-16.502 0-29.987-13.485-29.987-29.987s13.485-29.987 29.987-29.987h43.302c6.917-22.342 11.235-51.648 11.41-86.274zm292.349-77.473v-238.753c0-9.633-7.808-17.443-17.437-17.443h-407.072c-14.524 0-26.297 11.774-26.297 26.298v229.898zm-229.506-64.457-33.048 57.228c-1.376 2.383-4.021 3.738-6.759 3.464s-5.062-2.127-5.939-4.735l-10.585-31.501-32.581 6.572c-2.697.544-5.463-.543-7.068-2.777-1.606-2.235-1.754-5.202-.378-7.585l31.242-54.108c-11.988-15.09-19.164-34.163-19.164-54.856 0-48.662 39.712-88.374 88.374-88.374 48.681 0 88.392 39.712 88.392 88.374 0 20.693-7.176 39.765-19.165 54.855l31.243 54.109c1.376 2.383 1.228 5.35-.378 7.585-1.605 2.234-4.371 3.321-7.068 2.777l-32.581-6.572-10.585 31.501c-.877 2.608-3.201 4.461-5.939 4.735s-5.383-1.081-6.759-3.464l-33.048-57.229c-1.363.063-6.849.063-8.206.001zm-55.11-22.773-21.37 37.011 23.434-4.727c3.458-.697 6.895 1.288 8.019 4.632l7.612 22.652 22.4-38.789c-15.189-3.373-28.93-10.675-40.095-20.779zm118.425-.001c-11.164 10.102-24.905 17.404-40.095 20.777l22.401 38.792 7.612-22.652c1.124-3.344 4.561-5.329 8.019-4.632 0 0 23.434 4.727 23.434 4.727zm-59.221 8.868c40.971 0 74.392-33.421 74.392-74.392 0-40.954-33.422-74.374-74.392-74.374-40.953 0-74.374 33.421-74.374 74.374 0 40.97 33.42 74.392 74.374 74.392zm31.229-113.047c7.436-6.039 18.36-4.906 24.399 2.53 6.039 7.437 4.906 18.36-2.53 24.399l-62.064 50.4c-3.783 3.072-8.684 4.411-13.504 3.689s-9.113-3.439-11.83-7.485l-22.245-33.128c-5.34-7.953-3.222-18.73 4.731-24.07s18.729-3.222 24.07 4.731l11.655 17.359zm8.825 10.868-53.268 43.257c-1.527 1.24-3.505 1.78-5.45 1.489-1.945-.292-3.678-1.388-4.774-3.021l-15.929-23.722c-1.03-1.534-3.109-1.943-4.642-.913-1.534 1.03-1.943 3.108-.913 4.642l22.245 33.129c.524.78 1.352 1.304 2.281 1.443.93.14 1.875-.119 2.605-.711l62.063-50.4c1.434-1.164 1.653-3.271.488-4.705-1.164-1.435-3.271-1.653-4.706-.488zm12.71 258.015h-105.701c-.171 34.181-4.273 63.412-10.806 86.274h133.447c-7.919-22.877-15.186-52.11-16.94-86.274zm-278.158-63.473v23.011c0 14.523 11.773 26.295 26.297 26.295h398.211c14.525 0 26.298-11.772 26.298-26.295v-23.011zm224.841 35.994c-7.202 0-13.048-5.846-13.048-13.048 0-7.201 5.846-13.047 13.048-13.047h1.124c7.202 0 13.048 5.846 13.048 13.047 0 7.202-5.846 13.048-13.048 13.048zm-121.096 127.753c-8.798 0-15.987 7.189-15.987 15.987s7.189 15.987 15.987 15.987h245.743c8.77 0 15.952-7.192 15.952-15.987s-7.182-15.987-15.952-15.987z"/></svg>