<svg id="Layer_1" enable-background="new 0 0 512 512" viewBox="0 0 512 512" xmlns="http://www.w3.org/2000/svg"><path d="m228.7 185.39c46.98 0 85.2-38.22 85.2-85.2s-38.22-85.19-85.2-85.19-85.2 38.22-85.2 85.2 38.22 85.19 85.2 85.19zm0-158.39c40.36 0 73.2 32.84 73.2 73.2s-32.84 73.2-73.2 73.2-73.2-32.84-73.2-73.2 32.84-73.2 73.2-73.2zm139.99 281.53c-29.28 0-53.11 23.82-53.11 53.11s23.82 53.1 53.11 53.1 53.1-23.82 53.1-53.1-23.82-53.11-53.1-53.11zm0 94.21c-22.67 0-41.11-18.44-41.11-41.1s18.44-41.11 41.11-41.11 41.1 18.44 41.1 41.11-18.43 41.1-41.1 41.1zm83.77-57.22-13.14-13.14v-18.58c0-12.57-10.23-22.79-22.79-22.79h-18.58l-6.99-6.99c-21.87-46.43-66.89-77.84-117.76-82.05-2.09-.17-4.11.75-5.35 2.45l-39.15 53.76-39.15-53.76c-1.23-1.69-3.26-2.62-5.35-2.45-35.58 2.95-68.65 19.13-93.14 45.57-24.63 26.59-38.19 61.08-38.19 97.1v61.71c0 3.31 2.69 6 6 6h239.36c1.22 9.67 8.52 17.47 17.94 19.44l-17.23 42.6c-.85 2.1-.44 4.51 1.06 6.21s3.83 2.42 6.02 1.84l18.78-4.91 10.09 16.58c1.09 1.8 3.04 2.88 5.12 2.88.16 0 .32-.01.49-.02 2.26-.18 4.23-1.63 5.08-3.73l16.99-42.02c1.96.54 4.01.84 6.11.84s4.14-.3 6.11-.84l16.99 42.02c.85 2.1 2.82 3.55 5.08 3.73.16.01.33.02.49.02 2.08 0 4.03-1.08 5.12-2.88l10.09-16.58 18.78 4.91c2.19.57 4.53-.14 6.02-1.84 1.5-1.7 1.91-4.11 1.06-6.21l-17.23-42.6c10.34-2.16 18.13-11.34 18.13-22.31v-18.58l13.14-13.14c8.89-8.89 8.89-23.35 0-32.24zm-387.58-.88c0-66.59 51.12-123.23 116.99-130.4l41.98 57.65c1.13 1.55 2.93 2.47 4.85 2.47s3.72-.92 4.85-2.47l41.98-57.65c38.42 4.18 72.9 25.31 94.41 57.03-.42-.02-.83-.06-1.25-.06-6.1 0-11.83 2.36-16.12 6.66l-13.14 13.14h-18.58c-12.57 0-22.79 10.23-22.79 22.79v18.58l-13.14 13.14c-8.89 8.89-8.89 23.35 0 32.24l13.14 13.14v9.46h-174.94v-69.86c0-3.31-2.69-6-6-6s-6 2.69-6 6v69.85h-46.24zm274.07 133.03-6.2-10.19c-1.38-2.27-4.08-3.36-6.64-2.69l-11.54 3.02 14.37-35.54h10.5l12.72 12.73zm72.33-12.87c-2.56-.67-5.27.42-6.64 2.69l-6.2 10.19-13.22-32.68 12.73-12.73h10.5l14.37 35.54zm32.7-95.53-14.9 14.9c-1.13 1.12-1.76 2.65-1.76 4.24v21.07c0 5.95-4.84 10.79-10.79 10.79h-21.07c-1.59 0-3.12.63-4.24 1.76l-14.9 14.9c-2.03 2.03-4.74 3.14-7.63 3.14-2.9 0-5.61-1.12-7.63-3.14l-14.9-14.9c-1.12-1.12-2.65-1.76-4.24-1.76h-21.07c-5.95 0-10.79-4.84-10.79-10.79v-21.07c0-1.59-.63-3.12-1.76-4.24l-14.9-14.9c-4.21-4.21-4.21-11.06 0-15.27l14.9-14.9c1.13-1.12 1.76-2.65 1.76-4.24v-21.06c0-5.95 4.84-10.79 10.79-10.79h21.07c1.59 0 3.12-.63 4.24-1.76l14.9-14.9c2.03-2.03 4.74-3.14 7.63-3.14 2.9 0 5.61 1.12 7.63 3.14l14.9 14.9c1.12 1.12 2.65 1.76 4.24 1.76h21.07c5.95 0 10.79 4.84 10.79 10.79v21.07c0 1.59.63 3.12 1.76 4.24l14.9 14.9c4.21 4.21 4.21 11.05 0 15.26zm-49.6-26.17c2.34 2.34 2.34 6.14 0 8.49l-28.6 28.6c-1.17 1.17-2.71 1.76-4.24 1.76s-3.07-.59-4.24-1.76l-14.3-14.3c-2.34-2.34-2.34-6.14 0-8.49 2.34-2.34 6.14-2.34 8.48 0l10.06 10.06 24.36-24.36c2.34-2.35 6.14-2.35 8.48 0z"/></svg>