<svg id="Layer_1" enable-background="new 0 0 500 500" viewBox="0 0 500 500" xmlns="http://www.w3.org/2000/svg"><path clip-rule="evenodd" d="m382.563 316.578h-36.948v-78.479c0-3.498-2.822-6.319-6.282-6.319-8.146 0-16.185-.868-24.117-2.545v-67.165l61.224 35.249c1.212.704 6.123 3.062 6.123 3.806zm-49.565 29.957v-102.281c-30.08-1.491-59.148-13.56-82.999-34.488-23.851 20.928-52.919 32.997-82.999 34.488v102.282c0 20.268 7.879 37.725 22.2 49.144l60.8 48.425 60.745-48.426c14.374-11.419 22.253-28.876 22.253-49.144zm-178.667-108.436v78.479h-36.894v-115.57c.179-.632 4.94-3.026 6.122-3.689l61.171-35.249v67.165c-7.879 1.677-15.972 2.545-24.064 2.545-3.461 0-6.335 2.822-6.335 6.319zm43.016-124.418 46.318-25.688v110.47c-13.789 12.575-29.547 21.844-46.318 27.359zm105.253 0v112.141c-16.717-5.526-32.476-14.784-46.264-27.359l-.053-110.47zm103.069 202.897h-10.488v-115.453c0-9.089-7.724-12.033-12.458-14.758l-67.506-38.88v-37.527c0-2.295-1.225-4.408-3.248-5.521l-55.687-30.9v-25.719c0-3.492-2.822-6.319-6.282-6.319-3.514 0-6.335 2.827-6.335 6.319v25.72l-55.687 30.9c-1.97 1.113-3.247 3.226-3.247 5.521v37.528l-67.507 38.88c-4.867 2.801-12.458 5.745-12.458 14.758v115.453h-10.435c-3.514 0-6.335 2.832-6.335 6.319s2.822 6.319 6.335 6.319h60v17.318c0 24.191 9.583 45.152 26.992 59.025l64.738 51.561c2.28 1.841 5.558 1.832 7.879 0l64.685-51.561c17.409-13.874 26.992-34.834 26.992-59.025v-17.318h60.053c3.461 0 6.336-2.832 6.336-6.319-.002-3.489-2.877-6.321-6.337-6.321zm-135.385-41.781v15.168h-40.621v-15.168c0-11.196 9.104-20.305 20.337-20.305 11.18-.001 20.284 9.108 20.284 20.305zm22.466 27.806c6.229 8.8 9.476 19.123 9.476 30.021 0 28.802-23.425 52.243-52.227 52.243s-52.227-23.441-52.227-52.243c0-10.898 3.248-21.221 9.476-30.021zm-75.705-27.806c0-18.165 14.8-32.939 32.955-32.939s32.955 14.774 32.955 32.939v15.168h12.937c1.917 0 3.78.878 4.951 2.396 9.157 11.558 14.002 25.48 14.002 40.264 0 35.771-29.068 64.876-64.844 64.876s-64.898-29.105-64.898-64.876c0-14.784 4.845-28.706 14.002-40.264 1.224-1.517 3.035-2.396 4.951-2.396h12.99v-15.168zm32.955 51.066c3.727 0 6.761 3.029 6.761 6.761s-3.035 6.767-6.761 6.767c-3.727 0-6.761-3.035-6.761-6.767s3.034-6.761 6.761-6.761zm-6.335 25.102c-7.613-2.63-13.097-9.844-13.097-18.341 0-10.695 8.731-19.4 19.432-19.4s19.379 8.705 19.379 19.4c0 8.497-5.483 15.711-13.096 18.341v15.897c0 3.498-2.822 6.319-6.282 6.319-3.514 0-6.335-2.822-6.335-6.319v-15.897z" fill-rule="evenodd"/></svg>